<?xml version="1.0" encoding="utf-8"?>
<!-- Generator: Adobe Illustrator 19.0.0, SVG Export Plug-In . SVG Version: 6.00 Build 0)  -->
<svg version="1.1" id="Layer_1" xmlns="http://www.w3.org/2000/svg" xmlns:xlink="http://www.w3.org/1999/xlink" x="0px" y="0px"
	 viewBox="0 0 138.3 138.3" style="enable-background:new 0 0 138.3 138.3;" xml:space="preserve">
<style type="text/css">
	.st0{fill:none;stroke:#AFAFB0;stroke-width:3;stroke-miterlimit:10;}
</style>
<g>
	<path class="st0" d="M85.9,0c0,4.6-1.9,8.8-4.9,11.9c-3,3-7.2,4.9-11.9,4.9s-8.8-1.9-11.9-4.9c-3-3-4.9-7.2-4.9-11.9"/>
	<path class="st0" d="M138.3,85.9c-4.6,0-8.8-1.9-11.9-4.9c-3-3-4.9-7.2-4.9-11.9s1.9-8.8,4.9-11.9c3-3,7.2-4.9,11.9-4.9"/>
	<path class="st0" d="M52.3,138.3c0-4.6,1.9-8.8,4.9-11.9c3-3,7.2-4.9,11.9-4.9s8.8,1.9,11.9,4.9c3,3,4.9,7.2,4.9,11.9"/>
	<path class="st0" d="M0,52.3c4.6,0,8.8,1.9,11.9,4.9s4.9,7.2,4.9,11.9S14.9,78,11.9,81S4.6,85.9,0,85.9"/>
	<path class="st0" d="M131.3,30.7c-3.3,3.3-7.6,4.9-11.9,4.9c-4.3,0-8.6-1.6-11.9-4.9s-4.9-7.6-4.9-11.9s1.6-8.6,4.9-11.9"/>
	<path class="st0" d="M107.6,131.3c-3.3-3.3-4.9-7.6-4.9-11.9s1.6-8.6,4.9-11.9s7.6-4.9,11.9-4.9c4.3,0,8.6,1.6,11.9,4.9"/>
	<path class="st0" d="M7,107.6c3.3-3.3,7.6-4.9,11.9-4.9s8.6,1.6,11.9,4.9s4.9,7.6,4.9,11.9s-1.6,8.6-4.9,11.9"/>
	<path class="st0" d="M30.7,7c3.3,3.3,4.9,7.6,4.9,11.9s-1.6,8.6-4.9,11.9s-7.6,4.9-11.9,4.9S10.2,34,7,30.7"/>
	<circle class="st0" cx="69.1" cy="69.1" r="35.8"/>
</g>
</svg>
