<?xml version="1.0" encoding="utf-8"?>
<!-- Generator: Adobe Illustrator 19.0.0, SVG Export Plug-In . SVG Version: 6.00 Build 0)  -->
<svg version="1.1" id="Layer_1" xmlns="http://www.w3.org/2000/svg" xmlns:xlink="http://www.w3.org/1999/xlink" x="0px" y="0px"
	 viewBox="0 0 193.9 95.7" style="enable-background:new 0 0 193.9 95.7;" xml:space="preserve">
<style type="text/css">
	.st0{fill:#4B4B4B;}
	.st1{fill:#858585;}
	.st2{fill:#454545;}
	.st3{fill:#464646;}
	.st4{fill:#4D4D4D;}
	.st5{fill:#494949;}
	.st6{fill:#545454;}
	.st7{fill:#4C4C4C;}
	.st8{fill:#535353;}
	.st9{fill:#4E4E4E;}
	.st10{fill:#505050;}
	.st11{fill:#363636;}
	.st12{fill:#484848;}
	.st13{fill:#444444;}
	.st14{fill:#474747;}
	.st15{fill:#9A9A9A;}
	.st16{fill:#3B3B3B;}
	.st17{fill:#2F2F2F;}
	.st18{fill:#4F4F4F;}
	.st19{fill:#333333;}
	.st20{fill:#343434;}
	.st21{fill:#565656;}
	.st22{fill:#DDDDDD;}
	.st23{fill:#B2B2B2;}
	.st24{fill:#DEDEDE;}
	.st25{fill:#656565;}
</style>
<g id="XMLID_79_">
	<g id="XMLID_191_">
		<path id="XMLID_279_" class="st0" d="M98.2,47c1.2,0.7,2.4,0.8,3.7,0.5c2.1-0.5,4-1.6,5.6-3c2.8-2.5,5.4-5.3,7.2-8.6
			c0.5-0.9,1.1-1.7,1.8-2.5c0.4-0.5,0.8-1,1.3-1.2c0.6-0.3,1.3-0.4,1.9-0.6c0.1,0.6,0.3,1.2,0.3,1.7c0,2.2-0.7,4.2-1.6,6.1
			c-4.2,9.3-11.4,14.9-21.5,16.2c-7.2,1-13.9-0.8-19.7-5.3c-1.1-0.9-2.2-1.8-3.2-2.9c-0.8-0.8-1.4-1.9-1.5-3.1
			c-0.1-0.9,0.2-1.7,1-2.1c0.8-0.4,1.6-0.2,2.2,0.5c1.4,1.4,3.1,2.5,5,3.3c0.9,0.4,2,0.5,3,0.6c0.3,0,0.7-0.3,1-0.5
			c-0.3-0.2-0.5-0.4-0.8-0.6c-1.1-0.5-2.2-0.8-3.2-1.4c-1.5-0.9-3-2-4.4-3c-0.2-0.1-0.3-0.3-0.5-0.4c-1.6-1.3-3.2-0.9-4.1,0.9
			c-0.3,0.6-0.5,1.3-0.7,1.9c-0.4-0.6-0.9-1.2-1.3-1.8c-1.9-3.3-3-6.9-3.1-10.7c-0.2-4.4,0.2-8.6,2-12.7c2.4-5.4,6-9.6,11.1-12.6
			c5.4-3.3,11.3-4.3,17.4-3.5c7.6,1,13.6,4.7,18.2,10.9c2.7,3.7,4.2,7.8,4.9,12.3c0.1,0.5,0.1,1,0.1,1.4c0,0.2-0.1,0.4-0.1,0.6
			c-0.1-0.1-0.3-0.3-0.4-0.4c-1-0.9-2.1-1.8-3.1-2.6c-0.4-0.4-2.7-0.7-3.2-0.5c-1.6,0.6-3.2,1.2-4.8,1.8c-0.2,0.1-0.3,0-0.5,0
			c0.1-0.2,0.1-0.4,0.3-0.5c0.9-1,1.9-2,2.7-3.1c1.5-2.2,1.5-4.5,0.1-6.7c-1.9-3-4.8-4.9-8.1-6.1c-5.4-1.9-10.9-1.9-16.2,0.5
			c-6,2.7-9.6,8.7-9.3,14.6c0.2,4,1.6,7.5,5.3,9.7c2.7,1.6,5.6,2.1,8.7,1.8c3.9-0.4,7.1-2.4,10.4-4.3c2.8-1.6,5.6-3.1,8.5-4.6
			c1.3-0.7,2.8-1,4.4-0.9c2.1,0.1,3.5,1.3,4.6,3c0.2,0.4,0,0.6-0.4,0.7c-2.6,0.5-4,2.3-5.1,4.4c-1.4,2.5-3,4.8-4.8,6.9
			c-1.5,1.8-3.3,3.3-5.4,4.4c-1.6,0.9-3.3,1.4-5.1,1c-0.1-0.1-0.2-0.4-0.4-0.4C98,46,97.8,46,97.5,46c0.1,0.2,0.1,0.5,0.2,0.7
			C97.8,46.8,98,46.9,98.2,47z M100.1,43.3c-0.1-0.5-0.5-0.9-1.1-0.8c-0.6,0-1,0.6-0.8,1.2c0.2,0.4,0.6,0.7,1,0.8
			C99.7,44.6,100.2,43.9,100.1,43.3z"/>
		<path id="XMLID_276_" class="st1" d="M84.2,24.8c-0.1,0.2-0.3,0.5-0.3,0.6c0.4,1.1,1.2,1.8,2.5,1.8c0.8,0,1,0.3,1.1,1.1
			c0.2,1.5,1.2,2.2,2.5,2c1.4-0.2,2-1.3,1.3-2.6c-0.2-0.3-0.5-0.5-0.7-0.8c-0.3-0.3-0.1-0.4,0.2-0.6c2.1-0.7,4.1-0.7,5.8,0.9
			c0.6,0.5,1,0.9,1.7,0.1c0.7-0.8,1.6-0.9,2.6-0.9c1.6,0,3.2,0,4.7,0c0.2,0,0.3,0.1,0.5,0.2c-0.1,0.2-0.2,0.4-0.4,0.5
			c-3.9,1.9-7.9,3.9-11.8,5.7c-2.1,1-4.3,0.8-6.5,0.5c-4.3-0.8-7.4-5.1-7.6-9.1c-0.3-6.5,4.9-12.6,11.6-13.9
			c3.4-0.7,6.7-0.3,9.9,0.6c2.4,0.7,4.5,2.1,6.2,3.8c1.3,1.3,2.2,3,2.1,5c-0.1,1.1-0.3,1.2-1.4,1.1c-1.5-0.1-3,0-4.5,0.1
			c-3,0.2-6,0.5-9-0.3c-0.1-0.1-0.3-0.4-0.4-0.4c-0.6,0-0.5-1-1.2-0.8c0.3,0.5,0.6,1,0.9,1.5c0.1,0.1,0.2,0.1,0.3,0.2
			c1.1,0.4,2.2,1.1,3.4,1.2c2.2,0.1,4.4,0.3,6.5-0.2c0.8-0.2,1.8-0.1,2.7-0.1c0.3,0,0.6,0.2,0.9,0.3c-0.2,0.3-0.3,0.8-0.6,1
			c-1.2,0.9-2.6,1.5-4.1,1.6c-3,0.2-5.9,0.2-8.9-0.3c-1.6-0.3-3.3-0.1-4.8,0.7c-0.6,0.3-1.2,0.6-1.8,0.9c-1.4,0.6-1.6,0.5-2.7-0.8
			c0.6-0.4,1.3-0.8,1.8-1.3c0.4-0.3,0.7-0.8,1-1.3c0.1-0.1-0.1-0.4-0.1-0.6c-0.1,0-0.3,0.1-0.4,0.1C86.3,23,85.2,23.9,84.2,24.8z
			 M96,17.5c-0.6-0.3-0.9-0.5-1.2-0.5c-0.5,0-0.8,0.3-0.7,0.7c0.1,0.3,0.6,0.8,0.7,0.7C95.2,18.3,95.5,17.9,96,17.5z"/>
		<path id="XMLID_273_" class="st2" d="M136.1,75c0,2.3,0,4.7,0,7c0,0.6,0.2,1.3-0.8,1.4c-1.3,0.1-1.8,0-2-0.9
			c-0.2-0.8-0.4-0.4-0.8-0.1c-1.3,1.2-2.8,1.7-4.5,1.1c-2.5-0.8-3.9-2.5-4-5.5c-0.1-3,1-5.5,4.3-6.3c1.6-0.4,3,0.1,4.2,1.1
			c0.5,0.4,0.7,0.2,0.7-0.3c0-1.4,0-2.7,0-4.1c0-1.2,0.5-1.6,1.6-1.7c1-0.1,1.2,0.1,1.2,1.1C136.1,70.1,136.1,72.5,136.1,75z
			 M133.3,77.7c0-0.5,0-1-0.1-1.3c-0.4-1.3-1.2-2.2-2.5-2.5c-1.2-0.3-2.4,0-3.1,1c-1,1.4-1.3,2.9-0.5,4.4c0.7,1.3,1.8,2,3.1,1.9
			c1.4-0.1,2.4-1,2.9-2.3C133.2,78.5,133.2,78,133.3,77.7z"/>
		<path id="XMLID_272_" class="st2" d="M6,67.6c2.1,0.1,3.6,0.4,5,1.2c1,0.6,1.1,0.8,0.4,1.7c-0.1,0.2-0.2,0.3-0.4,0.5
			c-0.3,0.5-0.7,0.4-1.2,0.2c-1-0.5-2-0.9-3.1-1.1c-0.6-0.1-1.4,0.1-2,0.4c-1.2,0.6-1.2,2.1-0.1,2.8C5.5,73.8,6.2,74,7,74.2
			c1,0.3,2,0.5,2.9,0.9c1.7,0.7,2.8,2.3,2.8,3.9c-0.1,1.8-1.4,3.7-3.2,4.2c-2.9,0.8-5.6,0.3-8-1.4c-0.9-0.6-0.9-0.8-0.2-1.6
			c0.8-1,0.8-1,2.1-0.3c0.9,0.5,1.8,0.9,2.8,1.2c0.9,0.2,1.9,0.1,2.8-0.5c1.1-0.8,1.2-2.1,0-2.9c-0.5-0.3-1.1-0.5-1.7-0.7
			c-1.2-0.4-2.5-0.8-3.7-1.2c-1.6-0.6-2.4-1.8-2.4-3.5c0-1.8,0.7-3.2,2.4-4C4.5,68,5.5,67.8,6,67.6z"/>
		<path id="XMLID_271_" class="st3" d="M98.6,75.2c0-2.2,0-4.4,0-6.6c0-0.4,0-0.8,0.1-1.2c0.2-0.8,1-1.1,2-1
			c0.8,0.1,0.7,0.7,0.7,1.3c0,1.5,0,3,0,4.5c0,0.6,0.2,0.7,0.7,0.3c0.9-0.7,2-1.3,3.2-1.1c2.1,0.2,3.7,1.7,3.8,3.9
			c0.2,2.4,0,4.8,0.1,7.2c0,0.6-0.3,0.9-0.9,0.8c-0.2,0-0.4,0-0.6,0c-1.3,0-1.3,0-1.3-1.2c0-1.6,0-3.2,0-4.7c0-0.4,0-0.8,0-1.2
			c-0.2-1.3-1.1-2.2-2.3-2.3c-1.2-0.1-2.4,0.8-2.6,2.1c-0.1,0.5-0.1,1-0.1,1.4c0,1.6,0,3.2,0,4.7c0,1.1-0.1,1.1-1.2,1.2
			c-1.5,0.1-1.6,0-1.6-1.5C98.6,79.6,98.6,77.4,98.6,75.2z"/>
		<path id="XMLID_270_" class="st2" d="M82.1,76.3c-0.1-3.9,1.4-6.3,4.1-7.7c2.7-1.5,5.5-1.2,8.3,0.2c0.1,0.1,0.2,0.2,0.3,0.2
			c1.2,0.9,1,2.2-0.3,2.9c-0.1,0.1-0.4,0-0.5,0c-0.3-0.2-0.6-0.5-1-0.7c-3-1.9-6.5-0.8-7.7,2.6c-1.1,3.1,0.4,6.7,3.8,7.4
			c1.7,0.4,3.1-0.3,4.4-1.2c0.4-0.2,0.9-0.6,1.2-0.4c0.5,0.3,0.9,0.8,1.3,1.3c0.1,0.1-0.2,0.6-0.4,0.8c-3.3,3.1-8.3,2.5-10.9,0.1
			C82.7,79.9,82.1,78.3,82.1,76.3z"/>
		<path id="XMLID_267_" class="st3" d="M38.4,77.3c0,1.6,0,3.3,0,4.9c0,0.6-0.1,1.1-0.9,1.1c-0.7-0.1-1.6,0.4-1.7-0.9
			c0-0.3-0.1-0.9-0.5-0.3c-1.5,1.7-3.3,1.9-5.2,1.1c-1.9-0.8-2.9-2.5-3.2-4.5c-0.1-1.2,0-2.5,0.4-3.6c0.9-2.9,4.4-5,7.6-2.6
			c0.6,0.5,1,0.6,1-0.4c0.1-1.1,1-0.6,1.6-0.7c0.8-0.1,0.9,0.4,0.9,1.1C38.4,74,38.4,75.7,38.4,77.3z M32.9,81.3
			c1.1,0,2-0.6,2.5-1.8c0.7-1.5,0.7-2.9-0.2-4.3c-1-1.5-2.9-1.9-4.2-0.8c-1.2,1-1.6,2.3-1.3,3.8C29.9,80.1,31.1,81.3,32.9,81.3z"/>
		<path id="XMLID_264_" class="st2" d="M154.4,78.4c-1.2,0-2.3,0-3.5,0c-0.7,0-0.8,0.4-0.5,0.9c1,2.1,3.1,2.6,5.4,1.3
			c0.5-0.3,0.8-0.7,1.4-0.2c1,0.9,1.1,1.2,0,2c-3.5,2.4-8.9,1-9.7-3.9c-0.4-2.2,0.3-4.3,2-5.8c1.7-1.5,3.6-1.8,5.7-1
			c2.6,1,3.4,3.1,3.6,5.7c0,0.6-0.3,0.9-0.9,0.9C156.7,78.4,155.5,78.4,154.4,78.4C154.4,78.4,154.4,78.4,154.4,78.4z M152.9,76.7
			C152.9,76.7,152.9,76.7,152.9,76.7c0.8,0,1.5,0,2.3,0c0.6,0,0.9-0.3,0.7-0.9c-0.4-1-0.9-1.9-2.1-2c-1.1-0.1-2.2,0-2.9,1.1
			c-0.3,0.4-0.4,1-0.6,1.5c0.5,0.1,1,0.3,1.5,0.4C152.1,76.8,152.5,76.7,152.9,76.7z"/>
		<path id="XMLID_261_" class="st3" d="M21.2,78.4c-1.1,0-2.2,0-3.3,0c-1,0-1.2,0.5-0.6,1.3c1.1,1.8,3.1,2.2,5.2,1
			c0.4-0.2,0.6-0.8,1.2-0.4c1.3,0.8,1.3,1.3,0,2.2c-3.3,2.2-9,1.2-9.6-4.5c-0.3-2.3,1.3-5.2,3.4-6.1c2.8-1.2,5.3-0.2,6.5,1.4
			c0.5,0.6,0.9,1.3,1.1,2c0.9,2.9,0.7,3.1-2.3,3.1C22.3,78.4,21.7,78.4,21.2,78.4z M19.6,76.7C19.6,76.7,19.6,76.7,19.6,76.7
			c0.8,0,1.6,0,2.5,0c0.6,0,0.7-0.4,0.5-0.8c-0.3-0.9-0.8-1.8-1.9-2c-1.1-0.2-2.2-0.2-3,0.8c-0.4,0.5-0.5,1.2-0.8,1.8
			c0.5,0.1,1,0.2,1.6,0.2C18.9,76.8,19.3,76.7,19.6,76.7z"/>
		<path id="XMLID_258_" class="st2" d="M71.3,78.4c-1,0-1.9,0-2.9,0c-0.4,0-1,0.2-1.1,0.3c-0.1,0.4,0.1,1,0.3,1.3
			c0.9,1.3,3,1.7,4.5,0.9c0.3-0.1,0.6-0.4,0.9-0.6c0.4-0.3,0.7-0.3,1.1,0c1,0.8,1.1,1.2,0,2c-2.1,1.5-4.4,1.6-6.6,0.5
			c-2.1-1-3-2.8-3.1-5.2c-0.2-3,2-5.4,4-6.1c3-1.1,7.5,0.9,7.2,6c0,0.5-0.2,0.8-0.8,0.8C73.6,78.4,72.4,78.4,71.3,78.4
			C71.3,78.4,71.3,78.4,71.3,78.4z M69.7,76.7C69.7,76.7,69.7,76.7,69.7,76.7c0.8,0,1.6,0,2.5,0c0.5,0,0.8-0.2,0.6-0.8
			c-0.5-1.1-1.1-2-2.4-2.2c-1.3-0.1-2.3,0.4-2.9,1.5c-0.7,1.2-0.5,1.5,0.9,1.5C68.8,76.7,69.3,76.7,69.7,76.7z"/>
		<path id="XMLID_257_" class="st3" d="M161.3,77.5c0-1.6,0-3.3,0-4.9c0-0.6,0.3-1,0.9-0.9c0.7,0.1,1.7-0.5,2,0.8
			c0.1,0.6,0.5,0.1,0.7,0c1.3-1,2.8-1.5,4.4-0.8c1.2,0.5,2.1,1.3,2.3,2.6c0.2,1.4,0.3,2.7,0.3,4.1c0.1,1.3,0,2.6,0,3.9
			c0,0.7-0.3,1-1,1c-0.2,0-0.4,0-0.6,0c-1.1,0-1.2-0.1-1.2-1.1c0-1.6,0-3.2,0-4.7c0-0.5,0-1-0.1-1.4c-0.2-1.3-1.2-2.1-2.4-2.2
			c-1.2,0-2.2,0.8-2.5,2c-0.1,0.5-0.1,1.1-0.1,1.6c0,1.6,0,3.2,0,4.7c0,0.8-0.3,1.1-1.1,1.1c-0.2,0-0.4,0-0.6,0
			c-0.8,0.1-1.1-0.3-1.1-1.1C161.3,80.7,161.3,79.1,161.3,77.5C161.3,77.5,161.3,77.5,161.3,77.5z"/>
		<path id="XMLID_256_" class="st2" d="M54.6,83.4c-2.6,0-3.3-0.5-3.6-2.8c-0.2-1.7-0.2-3.4-0.2-5.1c0-0.7,0.2-1.4-0.9-1.7
			c-0.7-0.2-0.6-1.8,0.1-2c1-0.3,0.9-0.9,0.9-1.6c0-0.8-0.1-1.5,0.1-2.3c0.1-0.5,0.4-1.1,0.8-1.4c1-0.7,1.9-0.1,2,1.2
			c0,1,0,1.9,0,2.9c0,0.7,0.2,1.1,0.9,1c0.4,0,0.8,0,1.2,0c0.8-0.1,1.1,0.3,1.1,1.1c0,0.8-0.3,1.1-1.1,1.1c-2.2,0.1-2.2,0.1-2.2,2.4
			c0,1,0,2.1,0,3.1c0.1,1.4,0.6,1.8,1.9,1.7c0.4,0,1.1-0.7,1.2,0.4c0.1,1.2-0.1,1.7-1.1,1.8C55.2,83.4,54.7,83.4,54.6,83.4z"/>
		<path id="XMLID_255_" class="st3" d="M42.1,77.5c0-0.8,0-1.5,0-2.3c0-0.6,0-1.1-0.8-1.4c-0.7-0.3-0.8-1.8-0.1-2
			c1.1-0.3,0.9-1,0.9-1.7c0-0.8,0-1.5,0-2.3c0.1-0.9,0.6-1.3,1.5-1.4c0.9-0.1,1.2,0.2,1.3,1.2c0,1,0,2.1,0,3.1c0,0.7,0.2,1,0.9,1
			c0.3,0,0.7,0,1,0c0.8-0.1,1,0.4,1.1,1.1c0,0.8-0.4,1-1.1,1.1c-1.9,0.1-1.9,0.1-1.9,2.1c0,1.1,0,2.2,0,3.3c0,1.6,0.4,1.9,2,1.8
			c0.4,0,0.8-0.3,1,0.3c0.2,1,0,1.8-0.7,1.9c-1.1,0.1-2.2,0.1-3.3,0c-0.9-0.1-1.4-0.8-1.5-1.7c-0.2-1.3-0.3-2.7-0.4-4.1
			C42,77.5,42.1,77.5,42.1,77.5z"/>
		<path id="XMLID_254_" class="st3" d="M180.8,71.2c1.2,0.3,2.3,0.6,3.3,1c1.3,0.5,1.3,0.9,0.5,2c-0.3,0.4-0.6,0.5-1,0.2
			c-0.9-0.5-1.9-0.8-3-0.6c-0.6,0.1-1.2,0.3-1.1,1c0,0.4,0.4,0.8,0.7,1.1c0.4,0.3,0.9,0.3,1.3,0.5c0.8,0.3,1.5,0.6,2.3,0.9
			c1.2,0.5,1.8,1.4,1.7,2.8c-0.1,1.4-0.6,2.5-2,3.1c-2.3,0.9-4.4,0.5-6.5-0.7c-0.7-0.4-0.6-0.9-0.2-1.5c0.4-0.7,0.8-0.8,1.4-0.4
			c0.9,0.6,2,0.9,3.1,0.8c0.7,0,1.4-0.1,1.6-1c0.1-0.8-0.5-1.1-1.1-1.3c-0.6-0.2-1.2-0.4-1.7-0.6c-0.5-0.2-1-0.4-1.5-0.6
			c-2.5-1-2.3-4.5-0.4-5.5C179,71.9,180,71.6,180.8,71.2z"/>
		<path id="XMLID_253_" class="st4" d="M62.2,75.1c0,2.3,0,4.7,0,7c0,1.2-0.1,1.2-1.3,1.3c-1.4,0-1.5,0-1.5-1.5c0-4.5,0-9.1,0-13.6
			c0-1.5,0.5-1.9,1.8-1.8c0.7,0.1,1,0.4,1,1c0,0.9,0,1.8,0,2.7C62.2,71.8,62.2,73.5,62.2,75.1z"/>
		<path id="XMLID_252_" class="st5" d="M121.6,74.9c0,2.4,0,4.8,0,7.2c0,1.2-0.1,1.3-1.3,1.3c-1.5,0-1.5,0-1.6-1.4c0-4.5,0-9,0-13.6
			c0-1.4,0.6-2,1.8-1.9c0.7,0,1,0.3,1,1c0,1,0,1.9,0,2.9C121.6,71.8,121.6,73.3,121.6,74.9z"/>
		<path id="XMLID_251_" class="st2" d="M139.4,77.6c0-1.6,0-3.2,0-4.7c0-0.7,0.1-1.2,1-1.2c1.3,0,1.4,0,1.6,1c0,0.1,0,0.3,0,0.4
			c0.1,0.2,0.2,0.3,0.2,0.4c0.1-0.1,0.3-0.1,0.3-0.2c0.5-1,1.4-1.4,2.4-1.8c0.8-0.3,1.1-0.1,1.1,0.9c0,0.3,0.1,0.7,0,1
			c-0.1,0.3-0.4,0.8-0.6,0.8c-2.9,0.7-3.4,2.8-3.5,5.3c0,0.8,0,1.6,0,2.5c0,0.4-0.2,1.1-0.4,1.2c-0.6,0.2-1.2,0.1-1.8,0
			c-0.2,0-0.3-0.6-0.3-0.9C139.3,80.8,139.4,79.2,139.4,77.6C139.4,77.6,139.4,77.6,139.4,77.6z"/>
		<path id="XMLID_250_" class="st2" d="M115.2,77.6c0,1.6,0,3.2,0,4.7c0,1-0.2,1-1.3,1c-1.1,0-1.2-0.1-1.3-1.1c0-3.2,0-6.3,0-9.5
			c0-1,0.2-1.1,1.3-1.1c1.1,0,1.2,0.1,1.3,1.1C115.2,74.4,115.2,76,115.2,77.6z"/>
		<path id="XMLID_247_" class="st6" d="M91.6,92.5c0-0.1,0-0.3,0-0.4c0.1-0.7,0.2-1.4,0.4-2.1c1.2-0.1,2.5-0.3,3.6,0.4
			c0.6,0.5,1,1.6,0.3,2.2c-1,0.9-0.6,1.4,0,2.2c0.1,0.1,0,0.5,0,0.7c-0.2,0-0.6,0-0.7-0.2c-0.4-0.4-0.7-0.9-1-1.3
			c-0.6-0.7-1.1-0.5-1.4,0.4c-0.1,0.2,0,0.4-0.1,0.6c-0.1,0.2-0.4,0.3-0.6,0.4c-0.1,0-0.4-0.3-0.4-0.4
			C91.6,94.2,91.6,93.4,91.6,92.5C91.6,92.5,91.6,92.5,91.6,92.5z M95.1,91.6c-0.3-0.2-0.7-0.6-1.1-0.7c-0.5-0.1-1.2-0.2-1.2,0.6
			c0,0.5-0.1,1.1,0.7,1.2C94.1,92.8,95,92.4,95.1,91.6z"/>
		<path id="XMLID_244_" class="st0" d="M172.8,92.9c-0.2,1.6-1.6,2.8-3.1,2.6c-1.6-0.2-2.7-1.5-2.6-3.1c0.1-1.6,1.4-2.7,3.1-2.5
			C171.8,90,172.9,91.3,172.8,92.9z M171.6,92.6c0-1.1-0.8-1.9-1.8-1.9c-1,0-1.7,0.9-1.7,2c0,1.2,0.6,1.8,1.8,1.7
			C171.1,94.5,171.7,93.9,171.6,92.6z"/>
		<path id="XMLID_241_" class="st7" d="M13.2,92.6c0.1-1.6,1.2-2.7,2.9-2.7c1.5,0,2.9,1.4,2.8,2.9c0,1.5-1.5,2.8-3,2.8
			C14.5,95.6,13.1,94.2,13.2,92.6z M17.8,92.7c0-1-0.8-1.9-1.8-1.9c-0.9,0-1.8,1-1.9,1.9c-0.1,0.9,0.8,1.8,1.8,1.8
			C17.1,94.5,17.8,93.8,17.8,92.7z"/>
		<path id="XMLID_240_" class="st8" d="M138.2,91.9c-0.1,0.7-0.2,1.3-0.4,2c-0.3,1-1,1.7-2.1,1.6c-1-0.1-2-0.2-2.2-1.4
			c-0.2-1.3-0.2-2.6-0.2-3.9c0-0.1,0.3-0.3,0.5-0.3c0.2,0.1,0.5,0.3,0.6,0.4c0.1,0.5,0.1,1.1,0.1,1.6c0,0.5,0,1,0.1,1.4
			c0.1,0.6,0.5,1,1.1,1c0.7,0,1.2-0.2,1.3-1c0.1-0.6,0-1.2,0-1.8c0-0.4,0-0.8,0.1-1.2c0-0.2,0.4-0.4,0.5-0.4c0.2,0,0.5,0.3,0.5,0.5
			c0.1,0.5,0,1,0,1.4C138.1,91.9,138.2,91.9,138.2,91.9z"/>
		<path id="XMLID_237_" class="st3" d="M126.1,92.7c0-1.7,1.1-2.8,2.8-2.8c1.6,0,2.7,1.1,2.7,2.7c0,1.7-1.3,3-3,2.9
			C127.1,95.5,126.1,94.4,126.1,92.7z M130.7,92.6c-0.1-0.9-1.1-1.9-2-1.8c-0.9,0.1-1.7,1-1.7,2c0,1,0.8,1.7,1.9,1.7
			C129.9,94.5,130.7,93.5,130.7,92.6z"/>
		<path id="XMLID_236_" class="st3" d="M179.1,93c0,0.1,0,0.1,0,0.2c0,0.7-0.1,1.4-0.1,2.2c-1.1,0-1.3-1-1.9-1.6
			c-0.2-0.2-0.4-0.6-0.6-0.8c-0.3-0.3-0.6-0.5-0.9-0.8c-0.1,0.4-0.1,0.8-0.2,1.1c-0.1,0.7,0.4,1.5-0.4,2.1c-1.1-0.5-0.5-1.4-0.5-2.2
			c-0.1-0.9,0-1.8,0-2.7c0-0.2,0.1-0.5,0.2-0.5c0.2,0,0.6,0,0.7,0.1c0.7,0.8,1.4,1.7,2.1,2.5c0.1,0.1,0.3,0.2,0.5,0.3
			c0.1-0.2,0.2-0.4,0.2-0.6c0-0.5,0-1.1,0-1.6c0-0.3,0.3-0.6,0.4-0.8c0.2,0.2,0.4,0.5,0.5,0.7C179.1,91.5,179.1,92.3,179.1,93
			C179.1,93,179.1,93,179.1,93z"/>
		<path id="XMLID_233_" class="st0" d="M147.9,95.3c-1.4,0-1.4,0-1.4-1.3c0-1.1,0-2.2,0-3.3c0-0.5,0.2-0.8,0.7-0.8
			c0.7,0,1.4-0.1,2.1,0.1c1.5,0.3,2.3,1.5,2.1,3c-0.1,1.3-1,2.1-2.5,2.3C148.6,95.4,148.2,95.3,147.9,95.3z M148.3,94.5
			c1.2,0,2-0.6,2.1-1.5c0.1-0.8-0.7-1.9-1.6-2.1c-0.9-0.2-1.4,0.1-1.5,1.1c0,0.5,0,1.1,0,1.6C147.3,94.3,147.7,94.5,148.3,94.5z"/>
		<path id="XMLID_232_" class="st5" d="M144.5,92.9c0,0.7,0,1.4,0,2.1c0,0.2-0.2,0.4-0.3,0.5c-0.2,0-0.4-0.1-0.5-0.2
			c-0.8-0.9-1.5-1.8-2.2-2.7c-0.1-0.1-0.3-0.2-0.5-0.3c-0.1,0.2-0.2,0.3-0.2,0.5c0,0.7,0,1.5-0.1,2.3c0,0.1-0.2,0.3-0.3,0.3
			c-0.2,0-0.5-0.2-0.5-0.3c0-1.5-0.1-3,0-4.5c0-0.5,0.6-0.6,0.9-0.2c0.7,0.8,1.4,1.7,2.1,2.5c0.1,0.1,0.3,0.2,0.5,0.3
			c0.1-0.2,0.2-0.4,0.2-0.6c0-0.7,0-1.4,0.1-2.1c0-0.1,0.2-0.4,0.4-0.4c0.1,0,0.4,0.2,0.4,0.3C144.4,91.2,144.4,92.1,144.5,92.9
			C144.4,92.9,144.4,92.9,144.5,92.9z"/>
		<path id="XMLID_229_" class="st9" d="M61.8,92.6c0-0.2,0-0.4,0-0.6c0.1-0.7-0.4-1.8,0.5-2c1.1-0.2,2.5-0.4,3.5,0.5
			c0.6,0.6,0.8,1.4,0.2,2c-0.8,0.8-0.8,1.4,0,2.2c0.1,0.1,0.1,0.3,0.1,0.5c-0.3,0-0.6,0.1-0.7,0c-0.4-0.3-0.7-0.8-1.1-1.2
			c-0.7-0.7-1.1-0.6-1.5,0.5c-0.1,0.2-0.1,0.4-0.2,0.6c-0.1,0.1-0.2,0.2-0.3,0.1c-0.1,0-0.3-0.1-0.3-0.2
			C61.9,94.2,61.8,93.4,61.8,92.6C61.8,92.6,61.8,92.6,61.8,92.6z M63.7,90.8c-0.5,0-1,0.1-0.9,0.9c0,0.6,0.3,1,1,1.1
			c0.9,0,1.5-0.4,1.4-1C65,90.9,64.4,90.8,63.7,90.8z"/>
		<path id="XMLID_228_" class="st10" d="M108.6,92.7c0,0.3,0.1,0.7,0,1c-0.1,0.5,0.4,1.3-0.5,1.6c-0.1-0.5-0.3-0.9-0.4-1.4
			c-0.2-0.8-0.8-0.6-1.3-0.6c-0.6,0-1.1,0-1.2,0.8c0,0.5,0.2,1.3-0.6,1.3c-0.9,0-0.6-0.9-0.6-1.5c-0.1-0.9,0-1.8,0-2.7
			c0-0.4-0.2-1.1,0.5-1.2c0.7-0.1,0.6,0.5,0.7,1c0,0.6-0.1,1.3,0.9,1.3c1.1,0,1.4-0.3,1.6-1.3c0-0.1,0-0.3,0-0.4
			c0.1-0.2,0.3-0.4,0.5-0.6c0.1,0.2,0.3,0.4,0.4,0.6c0.1,0.1,0,0.3,0,0.4C108.6,91.6,108.6,92.1,108.6,92.7z"/>
		<path id="XMLID_227_" class="st11" d="M79.2,92.7c0-3.1-0.6-2.7,2.9-2.7c0.3,0,0.6,0,0.8,0.1c0.1,0,0.2,0.3,0.3,0.5
			c0,0.1-0.2,0.2-0.3,0.2c-0.7,0-1.4,0-2,0.1c-0.3,0.1-0.6,0.5-0.7,0.8c0,0.1,0.4,0.5,0.6,0.6c0.6,0.3,1.5-0.4,1.9,0.5
			c-0.6,0.1-1.3,0.3-1.9,0.4c-0.5,0.1-0.8,0.2-0.7,0.7c0.1,0.2,0.4,0.5,0.7,0.5c0.7,0.1,1.4,0,2,0.1c0.1,0,0.2,0.3,0.3,0.5
			c0,0.1-0.2,0.3-0.3,0.3c-1.1,0-2.2,0-3.3,0c-0.2,0-0.4-0.4-0.4-0.6C79.2,94,79.2,93.3,79.2,92.7z"/>
		<path id="XMLID_224_" class="st12" d="M41.8,93.9c-0.5,0.3-0.9,0.6-1.4,0.9c-0.3,0.2-0.6,0.5-0.8,0.4c-0.6-0.3-0.1-0.7,0-1
			c0.5-1.3,1.1-2.5,1.7-3.8c0.3-0.7,1-0.8,1.3-0.2c0.8,1.5,1.4,3.1,2.1,4.7c0,0.1,0,0.3-0.1,0.3c-0.2,0.1-0.4,0.1-0.5,0
			c-0.2-0.1-0.3-0.2-0.4-0.4C43.3,94.2,42.7,94,41.8,93.9z M42.9,93c-0.3-0.6-0.5-0.9-0.8-1.3c-0.3,0.3-0.5,0.7-0.7,1
			c0,0.1,0.4,0.5,0.6,0.5C42.2,93.3,42.5,93.1,42.9,93z"/>
		<path id="XMLID_221_" class="st0" d="M89.9,95c-0.1,0.1-0.2,0.3-0.3,0.3c-0.2,0-0.4,0-0.5-0.2c-0.4-0.5-0.6-1-1.4-1
			c-0.8,0-1.7,0-2.1,1c-0.1,0.2-0.5,0.2-0.7,0.3c0-0.2-0.1-0.5-0.1-0.7c0.6-1.4,1.2-2.8,1.8-4.2c0.3-0.6,1-0.8,1.3-0.2
			c0.7,1.5,1.3,3,2,4.5C89.9,94.8,89.9,94.9,89.9,95z M88.2,93c-0.4-0.6-0.6-0.9-0.8-1.3c-0.2,0.4-0.5,0.7-0.7,1.1
			c0,0.1,0.3,0.4,0.5,0.4C87.5,93.2,87.8,93.1,88.2,93z"/>
		<path id="XMLID_218_" class="st0" d="M27.6,89.9c0.4,0,0.8,0,1.2,0.1c0.9,0.2,1.4,0.8,1.4,1.7c0,0.9-0.4,1.7-1.3,1.8
			c-1,0.1-1.9,0.2-1.9,1.5c0,0.1-0.3,0.3-0.5,0.3c-0.2,0-0.4-0.2-0.4-0.3c0-1.5-0.1-3,0-4.5C26.1,89.6,27,90.1,27.6,89.9z M28,90.8
			c-0.7,0-1.1,0.3-1.1,0.9c-0.1,0.7,0.3,1.2,1,1.2c0.7,0,1.3-0.4,1.3-1C29.3,91.3,28.8,90.8,28,90.8z"/>
		<path id="XMLID_217_" class="st13" d="M67.9,92.7c0.1-0.9,0.2-1.7,0.4-2.6c1,0,2-0.1,3-0.1c0.1,0,0.3,0.2,0.4,0.3
			c-0.2,0.2-0.3,0.4-0.5,0.4c-0.2,0.1-0.5,0-0.8,0c-0.3,0-0.6-0.1-0.8,0C69.3,91,69,91.3,69,91.5c0,0.3,0.3,0.7,0.5,0.7
			c0.6,0.2,1.2,0.1,1.8,0.2c0.1,0,0.3,0.2,0.3,0.3c-0.1,0.2-0.2,0.4-0.3,0.4c-0.5,0.1-1.1,0-1.6,0.1c-0.3,0.1-0.6,0.3-0.7,0.6
			c-0.1,0.5,0.3,0.7,0.7,0.7c0.7,0.1,1.3,0.1,2,0.2c0.1,0,0.2,0.2,0.2,0.3c0,0.1-0.1,0.3-0.2,0.3c-1.1,0-2.2,0.1-3.3,0
			c-0.2,0-0.4-0.5-0.5-0.8c-0.1-0.6,0-1.2,0-1.8C68,92.7,67.9,92.7,67.9,92.7z"/>
		<path id="XMLID_216_" class="st7" d="M75.8,89.9c0.2,0,0.6,0.1,0.9,0.3c0.2,0.1,0.3,0.4,0.4,0.6c-0.2,0.1-0.5,0.3-0.7,0.2
			c-0.6-0.2-1.5-0.7-1.7,0.3c-0.2,0.8,0.8,0.8,1.3,1c0.4,0.2,0.8,0.3,1.1,0.6c0.6,0.5,0.6,1.5,0.1,2c-0.8,0.8-2.7,0.7-3.6-0.1
			c-0.1-0.1-0.1-0.3-0.1-0.4c0.1-0.1,0.3-0.3,0.5-0.3c0.7,0.1,1.3,0.2,2,0.3c0.2,0,0.4-0.3,0.5-0.6c0-0.1-0.2-0.4-0.4-0.4
			c-0.4-0.2-0.8-0.3-1.2-0.4c-1.2-0.4-1.6-0.9-1.4-1.7C73.7,90.4,74.4,89.9,75.8,89.9z"/>
		<path id="XMLID_213_" class="st12" d="M152.7,95.5c-0.1-0.2-0.2-0.3-0.3-0.5c0,0,0-0.1,0.1-0.2c0.6-1.4,1.2-2.9,1.9-4.3
			c0.4-0.7,1-0.7,1.4,0c0.7,1.4,1.3,2.9,1.9,4.3c0,0.1-0.1,0.4-0.2,0.4c-0.2,0-0.5,0-0.5-0.1c-0.4-0.8-1-1.2-2-1.1
			c-0.7,0.1-1.2,0.1-1.5,0.8c-0.1,0.3-0.2,0.5-0.3,0.8C153,95.6,152.9,95.5,152.7,95.5z M155.2,93.4c0.3-0.3,0.6-0.6,0.6-0.7
			c-0.2-0.4-0.5-0.7-0.7-1.1c-0.2,0.4-0.5,0.8-0.6,1.2C154.4,92.9,154.8,93.2,155.2,93.4z"/>
		<path id="XMLID_212_" class="st5" d="M11.5,92.6c0,0.3,0.1,0.7,0,1c-0.1,0.5,0.4,1.3-0.5,1.6c-0.2-0.5-0.3-1-0.5-1.4
			c-0.1-0.3-0.4-0.6-0.7-0.6c-0.5-0.1-1.2-0.2-1.6,0.1C8,93.5,8,94.3,7.8,94.7c-0.1,0.2-0.3,0.3-0.5,0.5C7.2,95.1,7,94.9,7,94.8
			c0-1.4,0-2.9,0-4.3c0-0.1,0.2-0.4,0.3-0.4c0.1,0,0.3,0.2,0.4,0.3c0.1,0.2,0,0.4,0.1,0.6c0.2,1.2,0.3,1.3,1.3,1.3
			c1.1,0,1.2-0.1,1.4-1.2c0-0.1,0-0.3,0-0.4c0.1-0.2,0.3-0.4,0.4-0.6c0.2,0.2,0.3,0.4,0.5,0.6c0.1,0.1,0,0.3,0,0.4
			C11.5,91.5,11.5,92.1,11.5,92.6z"/>
		<path id="XMLID_211_" class="st5" d="M22.5,89.9c0.2,0.1,0.6,0.1,1,0.3c0.2,0.1,0.3,0.4,0.4,0.6c-0.2,0.1-0.5,0.3-0.6,0.2
			c-0.6-0.2-1.5-0.7-1.7,0.3c-0.2,0.8,0.8,0.8,1.3,1c0.4,0.2,0.8,0.3,1.1,0.6c0.8,0.7,0.6,1.9-0.4,2.4c-1,0.5-2,0.3-2.9-0.3
			c-0.1-0.1-0.2-0.4-0.1-0.5c0.1-0.1,0.3-0.3,0.5-0.3c0.7,0,1.3,0.2,2,0.2c0.1,0,0.3-0.3,0.4-0.4c0-0.1-0.1-0.4-0.2-0.5
			c-0.4-0.2-0.9-0.4-1.3-0.5c-0.8-0.2-1.4-0.7-1.3-1.6C20.4,90.6,21.2,89.9,22.5,89.9z"/>
		<path id="XMLID_210_" class="st14" d="M97.7,92.6c-0.1-1.1,0.4-1.9,1.4-2.4c1-0.5,2-0.4,2.9,0.2c0.1,0.1,0.2,0.4,0.2,0.5
			c-0.1,0.1-0.3,0.3-0.5,0.2c-0.3-0.1-0.6-0.3-1-0.3c-1.1-0.2-2,0.6-2.1,1.7c-0.1,1.1,0.7,2,1.9,1.9c0.2,0,0.4-0.1,0.6-0.1
			c0.4,0,1-0.2,1-0.1c0.3,0.6-0.3,0.8-0.7,1C99.5,96.2,97.7,94.9,97.7,92.6z"/>
		<path id="XMLID_209_" class="st15" d="M193,68c1.3,0.9,0.8,2.1,0.3,3.1c-0.5,1.1-1.4,1.5-2.7,1.5c-1.9,0.1-2.8-1.2-3.2-2.3
			c-0.4-1.2,0.2-2.7,1.3-3.4c1.2-0.8,2.9-0.7,4,0.2C192.9,67.4,192.9,67.8,193,68c-0.4-0.2-0.8-0.5-1.1-0.8c-1-0.7-1.9-0.5-2.8,0.1
			c-1,0.7-1.4,2-1,3c0.6,1.4,1.7,2,3.1,1.8c1.1-0.2,1.9-1.2,2-2.5C193.1,69.1,193,68.6,193,68z"/>
		<path id="XMLID_208_" class="st16" d="M120.7,93c0-0.1,0-0.3,0-0.4c0.1-0.8,0.1-1.6,0.2-2.4c1.1-0.1,2.2-0.1,3.2-0.1
			c0.1,0,0.2,0.3,0.3,0.4c0,0.1-0.2,0.2-0.2,0.3c-0.5,0.1-1.1,0.1-1.6,0.1c-0.5,0-1,0.1-1,0.7c0,0.6,0.3,0.8,0.9,0.8
			c0.4,0,0.8,0,1.2,0.1c0.1,0,0.2,0.3,0.4,0.4c-0.1,0.1-0.3,0.3-0.4,0.3c-0.2,0.1-0.4,0-0.6,0c-1.2,0.1-1.2,0.1-1.4,1.3
			c0,0.2,0,0.4-0.1,0.6c-0.1,0.1-0.3,0.3-0.5,0.3c-0.1,0-0.4-0.3-0.4-0.4C120.7,94.3,120.7,93.7,120.7,93
			C120.8,93,120.8,93,120.7,93z"/>
		<path id="XMLID_207_" class="st17" d="M46.3,92.1c0-0.3,0.1-1,0.2-1.8c0-0.1,0.3-0.3,0.4-0.3c0.1,0,0.4,0.2,0.4,0.4
			c0,1,0.1,1.9,0,2.9c0,0.8,0.2,1.3,1.1,1.3c0.4,0,0.8,0,1.2,0.1c0.1,0,0.3,0.3,0.4,0.4c-0.1,0.1-0.3,0.2-0.5,0.3
			c-0.1,0.1-0.3,0-0.4,0C45.7,95.3,46.4,95.7,46.3,92.1z"/>
		<path id="XMLID_206_" class="st18" d="M176.1,70.6c0.1,1.1-0.1,2.2-1.2,2.8c-0.2,0.1-0.5,0.1-0.7,0.1c0-0.3-0.1-0.5,0-0.8
			c0-0.2,0.3-0.3,0.4-0.5c0.4-0.5,0.4-0.8-0.2-1.1c-0.8-0.3-0.7-0.9-0.4-1.5c0.3-0.6,1.1-1,1.8-0.7c0.2,0.1,0.4,0.3,0.5,0.6
			C176.2,69.9,176.1,70.2,176.1,70.6z"/>
		<path id="XMLID_205_" class="st2" d="M39.1,90.2c-0.5,0.4-0.7,0.6-0.9,0.6c-1.1-0.1-1.2,0.6-1.2,1.4c0,0.9,0,1.8,0,2.7
			c0,0.1-0.3,0.3-0.4,0.3c-0.1,0-0.4-0.2-0.4-0.3c0-0.8-0.1-1.6-0.1-2.5c0-0.9-0.1-1.6-1.3-1.6c-0.2,0-0.3-0.3-0.5-0.5
			c0.2-0.1,0.4-0.3,0.7-0.3c1.1,0,2.2,0,3.3,0C38.6,90,38.8,90.1,39.1,90.2z"/>
		<path id="XMLID_204_" class="st2" d="M160.6,90c0.5,0,1,0,1.4,0c0.2,0,0.4,0.3,0.6,0.4c-0.2,0.1-0.4,0.4-0.5,0.4
			c-1,0-1.2,0.6-1.2,1.5c0,0.8,0,1.6,0,2.4c0,0.2-0.3,0.4-0.4,0.5c-0.1-0.2-0.4-0.4-0.4-0.6c0-0.8-0.1-1.6,0-2.4
			c0.1-0.9-0.1-1.5-1.2-1.4c-0.1,0-0.3-0.2-0.4-0.4c0.2-0.2,0.3-0.4,0.5-0.4C159.5,89.9,160.1,90,160.6,90z"/>
		<path id="XMLID_203_" class="st4" d="M115.4,67.9c0,0.9-0.7,1.5-1.6,1.4c-0.8-0.1-1.4-0.8-1.4-1.5c0-0.7,0.7-1.4,1.5-1.4
			C114.7,66.4,115.5,67.2,115.4,67.9z"/>
		<path id="XMLID_202_" class="st19" d="M165.3,92.8c0,0.7,0,1.4,0,2.1c0,0.2-0.3,0.4-0.6,0.4c-0.1,0-0.4-0.2-0.4-0.4
			c0-1.5,0-3,0.1-4.5c0-0.1,0.3-0.4,0.4-0.4c0.2,0.1,0.5,0.3,0.5,0.5C165.4,91.3,165.3,92,165.3,92.8
			C165.3,92.8,165.3,92.8,165.3,92.8z"/>
		<path id="XMLID_201_" class="st20" d="M32.7,92.8c0,0.7,0.1,1.4,0.1,2c0,0.1-0.2,0.4-0.3,0.4c-0.2-0.1-0.6-0.2-0.6-0.3
			c0-1.6,0-3.1,0-4.7c0-0.1,0.2-0.2,0.3-0.2c0.2,0.1,0.4,0.2,0.4,0.3C32.6,91.2,32.6,92,32.7,92.8C32.6,92.8,32.7,92.8,32.7,92.8z"
			/>
		<path id="XMLID_200_" class="st21" d="M115.8,92.8c-0.1,0.6-0.5,0.9-1.1,0.9c-0.7,0-1.2-0.5-1.2-1.1c0.1-0.6,0.5-1,1.1-1
			C115.1,91.6,115.8,92.2,115.8,92.8z"/>
		<path id="XMLID_199_" class="st4" d="M55.9,91.6c0.6,0.1,0.9,0.4,1,1c0,0.6-0.5,1.1-1.2,1c-0.6,0-0.8-0.3-0.9-0.9
			C54.8,92.1,55.2,91.6,55.9,91.6z"/>
		<path id="XMLID_198_" class="st22" d="M94.5,21c-0.1-0.1-0.3-0.1-0.3-0.2c-0.3-0.5-0.6-1-0.9-1.5c0.7-0.2,0.6,0.8,1.2,0.8
			c0.1,0,0.3,0.2,0.4,0.4C94.8,20.7,94.6,20.9,94.5,21z"/>
		<path id="XMLID_197_" class="st23" d="M98.2,47c-0.2-0.1-0.4-0.2-0.5-0.3c-0.1-0.2-0.1-0.5-0.2-0.7c0.2,0,0.5,0,0.7,0.1
			c0.2,0.1,0.3,0.3,0.4,0.4C98.5,46.7,98.3,46.8,98.2,47z"/>
		<path id="XMLID_196_" class="st24" d="M28,90.8c0.7,0,1.3,0.5,1.2,1.1c0,0.6-0.6,1-1.3,1c-0.7,0-1.1-0.5-1-1.2
			C27,91.1,27.4,90.7,28,90.8z"/>
		<path id="XMLID_193_" class="st25" d="M191.3,70.6c-0.5-0.2-1.1-1.4-1.6,0.1c-0.1,0-0.4-0.1-0.4-0.1c0-0.5,0-1.1,0-1.6
			c0-0.6,0.3-0.8,0.9-0.9c1.6-0.1,1.8,0.2,1.3,1.8c-0.1,0.2,0,0.4-0.1,0.6L191.3,70.6z M190.5,68.3c-0.3,0.2-0.5,0.4-0.7,0.5
			c0.2,0.2,0.5,0.4,0.7,0.5c0.2,0,0.4-0.2,0.7-0.3C191,68.7,190.8,68.6,190.5,68.3z"/>
		<path id="XMLID_192_" class="st13" d="M191.4,70.5c0.1,0.1,0.2,0.2,0.2,0.3c-0.1-0.1-0.2-0.2-0.3-0.2L191.4,70.5z"/>
	</g>
</g>
</svg>
