<?xml version="1.0" encoding="utf-8"?>
<!-- Generator: Adobe Illustrator 19.0.0, SVG Export Plug-In . SVG Version: 6.00 Build 0)  -->
<svg version="1.1" id="Layer_1" xmlns="http://www.w3.org/2000/svg" xmlns:xlink="http://www.w3.org/1999/xlink" x="0px" y="0px"
	 viewBox="0 0 328 127.4" style="enable-background:new 0 0 328 127.4;" xml:space="preserve">
<style type="text/css">
	.st0{clip-path:url(#SVGID_2_);}
	.st1{fill:#333333;}
</style>
<g>
	<defs>
		<rect id="SVGID_1_" width="328" height="127.4"/>
	</defs>
	<clipPath id="SVGID_2_">
		<use xlink:href="#SVGID_1_"  style="overflow:visible;"/>
	</clipPath>
	<g class="st0">
		<g>
			<path class="st1" d="M234.1-9.2c-4.9-5.6-10.3-10.7-16.1-15.3c-2.3-1.8-5.5-1.9-7.9-0.1l-71.6,53.8L234.1-9.2z"/>
			<path class="st1" d="M197.2-37.4c-6.7-3.3-13.6-5.9-20.8-7.9c-2.8-0.8-5.8,0.4-7.3,2.9l-45.5,77.1L197.2-37.4z"/>
			<path class="st1" d="M152.3-49.3c-7.4-0.5-14.9-0.2-22.2,0.7c-2.9,0.4-5.2,2.6-5.6,5.5L112,45.5L152.3-49.3z"/>
			<path class="st1" d="M106.3-43.1c-7,2.4-13.8,5.5-20.3,9.1c-2.5,1.4-3.8,4.4-3.1,7.2l22.5,86.7L106.3-43.1z"/>
			<path class="st1" d="M66.2-19.7C60.6-14.8,55.5-9.3,51-3.5c-1.8,2.3-1.8,5.5-0.1,7.9l54.1,71.4L66.2-19.7z"/>
			<path class="st1" d="M38.1,17.3C34.9,24,32.2,31,30.3,38.1c-0.8,2.8,0.4,5.8,3,7.3l77.3,45.2L38.1,17.3z"/>
			<path class="st1" d="M26.4,62.3c-0.4,7.4-0.2,14.9,0.8,22.2c0.4,2.9,2.6,5.2,5.5,5.6l88.7,12.1L26.4,62.3z"/>
			<path class="st1" d="M32.8,108.3c2.4,7,5.5,13.8,9.2,20.2c1.5,2.5,4.4,3.8,7.2,3l86.6-22.9L32.8,108.3z"/>
			<path class="st1" d="M56.4,148.3c5,5.5,10.4,10.6,16.3,15.1c2.3,1.8,5.5,1.8,7.9,0l71.2-54.4L56.4,148.3z"/>
			<path class="st1" d="M93.5,176.2c6.7,3.2,13.7,5.8,20.8,7.7c2.8,0.8,5.8-0.5,7.3-3l44.9-77.5L93.5,176.2z"/>
			<path class="st1" d="M138.5,187.7c7.4,0.4,14.9,0.1,22.2-0.9c2.9-0.4,5.2-2.6,5.6-5.5L178,92.5L138.5,187.7z"/>
			<path class="st1" d="M256.7,29.1c-2.5-7-5.7-13.7-9.4-20.1c-1.5-2.5-4.4-3.8-7.3-3l-86.4,23.6L256.7,29.1z"/>
		</g>
	</g>
</g>
</svg>
