<?xml version="1.0" encoding="utf-8"?>
<!-- Generator: Adobe Illustrator 19.0.0, SVG Export Plug-In . SVG Version: 6.00 Build 0)  -->
<svg version="1.1" id="Layer_1" xmlns="http://www.w3.org/2000/svg" xmlns:xlink="http://www.w3.org/1999/xlink" x="0px" y="0px"
	 viewBox="0 0 140 143" style="enable-background:new 0 0 140 143;" xml:space="preserve">
<style type="text/css">
	.st0{fill:none;stroke:#FFFFFF;stroke-width:2;stroke-miterlimit:10;}
</style>
<g id="XMLID_41_">
	<polyline id="XMLID_73_" class="st0" points="106.2,74.2 106.2,38.4 35,38.4 35,109.5 70.3,109.5 	"/>
	<polyline id="XMLID_72_" class="st0" points="105.6,143 139,143 139,74.2 70.3,74.2 70.3,109.8 	"/>
	<rect id="XMLID_71_" x="1" y="109.5" class="st0" width="104.6" height="33.5"/>
	<rect id="XMLID_70_" x="117.6" y="127.3" class="st0" width="8.6" height="15.7"/>
	<polyline id="XMLID_69_" class="st0" points="1.5,127.3 105.6,127.3 105.6,135.2 1.5,135.2 	"/>
	<g id="XMLID_51_">
		<line id="XMLID_2_" class="st0" x1="8.9" y1="127.3" x2="8.9" y2="135.3"/>
		<line id="XMLID_13_" class="st0" x1="16.9" y1="127.3" x2="16.9" y2="135.3"/>
		<line id="XMLID_12_" class="st0" x1="25" y1="127.3" x2="25" y2="135.3"/>
		<line id="XMLID_11_" class="st0" x1="33" y1="127.3" x2="33" y2="135.3"/>
		<line id="XMLID_10_" class="st0" x1="41" y1="127.3" x2="41" y2="135.3"/>
		<line id="XMLID_9_" class="st0" x1="49.1" y1="127.3" x2="49.1" y2="135.3"/>
		<line id="XMLID_8_" class="st0" x1="57.1" y1="127.3" x2="57.1" y2="135.3"/>
		<line id="XMLID_7_" class="st0" x1="65.1" y1="127.3" x2="65.1" y2="135.3"/>
		<line id="XMLID_6_" class="st0" x1="73.2" y1="127.3" x2="73.2" y2="135.3"/>
		<line id="XMLID_5_" class="st0" x1="81.2" y1="127.3" x2="81.2" y2="135.3"/>
		<line id="XMLID_4_" class="st0" x1="89.2" y1="127.3" x2="89.2" y2="135.3"/>
		<line id="XMLID_3_" class="st0" x1="97.3" y1="127.3" x2="97.3" y2="135.3"/>
		<line id="XMLID_1_" class="st0" x1="105.3" y1="127.3" x2="105.3" y2="135.3"/>
	</g>
	<rect id="XMLID_50_" x="70.3" y="84.5" class="st0" width="68.7" height="13.2"/>
	<line id="XMLID_49_" class="st0" x1="93.2" y1="84.5" x2="93.2" y2="97.8"/>
	<line id="XMLID_48_" class="st0" x1="116.1" y1="84.5" x2="116.1" y2="97.8"/>
	<g id="XMLID_44_">
		<rect id="XMLID_47_" x="35" y="49.6" class="st0" width="71.1" height="13.2"/>
		<line id="XMLID_46_" class="st0" x1="58.7" y1="49.6" x2="58.7" y2="62.9"/>
		<line id="XMLID_45_" class="st0" x1="82.4" y1="49.6" x2="82.4" y2="62.9"/>
	</g>
	<line id="XMLID_43_" class="st0" x1="70.3" y1="84.5" x2="70.3" y2="97.8"/>
	<line id="XMLID_42_" class="st0" x1="139" y1="84.5" x2="139" y2="97.8"/>
</g>
</svg>
