<?xml version="1.0" encoding="utf-8"?>
<!-- Generator: Adobe Illustrator 19.0.0, SVG Export Plug-In . SVG Version: 6.00 Build 0)  -->
<svg version="1.1" id="Layer_1" xmlns="http://www.w3.org/2000/svg" xmlns:xlink="http://www.w3.org/1999/xlink" x="0px" y="0px"
	 viewBox="0 0 185.8 92.9" style="enable-background:new 0 0 185.8 92.9;" xml:space="preserve">
<style type="text/css">
	.st0{fill:#3A3A3A;}
	.st1{fill:#808081;}
</style>
<g id="XMLID_131_">
	<g id="XMLID_163_">
		<path id="XMLID_200_" class="st0" d="M44.6,36.3c0.4,1.1,0.9,2.2,1.1,3.4c1.8,10.6-5.4,20.7-16.1,22.6C19.5,64,9.9,57.8,7.3,47.8
			c-0.1-0.3-0.1-0.6-0.1-0.9c4.4-1,8.8-2,13.1-3c3-0.7,5.9-1.5,8.9-2.4c0.8-0.2,1.3-0.2,1.3,0.7c0,1.4,0.1,2.8,0.1,4.2
			c-0.1,2.4-0.4,4.8-0.6,7.2c0,0.3,0.1,0.6,0.2,0.9c0.4-0.2,0.7-0.4,1-0.6c0.2-0.1,0.2-0.4,0.2-0.6c1.3-4.2,2.7-8.5,4-12.8
			c0.2-0.7,0.5-0.9,1.1-1.1c2-0.6,4-1.1,6-1.8C43.3,37.4,43.9,36.8,44.6,36.3z"/>
		<path id="XMLID_199_" class="st0" d="M7,45.7c-0.5-2.8-0.4-5.5,0.5-8.2c2.2-7.1,6.9-11.7,14.1-13.7c0.1,0,0.2-0.1,0.3-0.1
			c0.2,0,0.4,0,0.6-0.1c0.1,0,0.2-0.1,0.3-0.1c1.8-0.1,3.7-0.1,5.5-0.2c0.1,0,0.2,0,0.3,0c0.8,0.1,1.5,0.2,2.3,0.3
			c0.1,0,0.2,0.1,0.3,0.1c0.2,0,0.4,0.1,0.6,0.1c0.1,0,0.2,0.1,0.3,0.1c5.4,1.7,9.4,5.1,11.9,10.2c-0.5,0.1-1.1,0.2-1.6,0.4
			c-2.2,0.6-4.4,1.2-6.7,1.8c-0.4,0.1-0.9,0.1-1.1-0.1c-2.5-2.2-5-4.4-7.6-6.6c-1-0.9-2-1.8-3.1-2.6c-0.4-0.3-1-0.1-1.5-0.2
			c0.1,0.3,0.2,0.7,0.4,1c1.2,1.7,2.4,3.3,3.6,4.9c1,1.4,1.9,2.8,2.8,4.2c0.4,0.7,0.4,1.1-0.6,1.4c-3.3,0.9-6.5,2-9.8,3
			C14.8,42.9,10.9,44.4,7,45.7z"/>
		<path id="XMLID_198_" class="st0" d="M52.7,47.5c0-3.4,0-6.8,0-10.2c0-2.1,1-3.1,3.1-3.1c3.8,0,7.6,0,11.4,0c0.9,0,1.1,0.2,0.9,1
			c0,0.1,0,0.2,0,0.2c-0.7,2.8-1,3-3.8,3c-2,0-4,0-6,0c-0.7,0-0.9,0.2-0.8,0.8c0,1.4,0,2.8,0,4.2c0,0.6,0.2,0.8,0.8,0.8
			c2.5,0,5,0,7.5,0c0.7,0,1.1,0.1,1,0.9c-0.1,1.1,0.3,2.6-0.3,3.2c-0.5,0.6-2,0.2-3.1,0.2c-1.7,0-3.3,0-5,0c-0.7,0-1,0.1-0.9,0.9
			c0.1,2.1,0,4.3,0,6.4c0,0.7,0.2,0.8,0.9,0.8c3,0,6,0,9.1,0c0.8,0,1.1,0.2,0.8,1C68,57.6,68,57.8,68,57.9c-0.7,2.6-0.9,2.7-3.6,2.7
			c-2.9,0-5.9,0-8.8,0c-1.9,0-2.9-1-2.9-2.8C52.6,54.4,52.7,50.9,52.7,47.5z"/>
		<path id="XMLID_190_" class="st0" d="M142.7,46.9c0,3.9,0,7.9,0,11.8c0,0.9-0.2,1.5-1.1,1.9c-0.6,0.2-1.2,0.5-1.8,0.8
			c-0.6,0.2-1.3,0.5-1.2-0.6c0,0-0.5-0.2-0.7-0.2c-1.2,0.3-2.4,0.8-3.7,0.9c-4.6,0.2-7.9-2.7-8.6-7.4c-0.7-4.8,2.2-9.3,6.9-10.3
			c1.5-0.3,3.1-0.1,4.7,0.1c0.7,0,0.9,0.1,0.9-0.7c-0.1-2.3,0-4.6,0-6.8c0-0.6,0.2-1,0.7-1.3c1-0.4,1.9-0.7,2.9-1.1
			c0.8-0.3,1-0.1,1,0.8c0,3.2,0,6.3,0,9.5C142.7,45.1,142.7,46,142.7,46.9z M138.1,52.3c0-1.3,0-2.6,0-3.9c0-0.3-0.2-0.8-0.4-0.9
			c-2-1.1-4.9-0.5-6.2,1.4c-1.2,1.7-1.5,3.6-1,5.6c0.5,2.5,2.1,3.6,4.6,3.4c0.8-0.1,1.6-0.4,2.4-0.6c0.6-0.2,0.8-0.5,0.7-1.1
			C138.1,54.8,138.1,53.5,138.1,52.3z"/>
		<path id="XMLID_187_" class="st0" d="M88.8,57.7c0-4.1,0-8.3,0-12.4c0-0.9,0.2-1.2,1.1-1.2c1.9-0.1,3.8-0.3,5.7-0.5
			c4-0.5,7.7,1.2,9.3,4.6c1.8,3.7,1,8.4-1.9,11c-2.4,2.2-5.4,2.7-8.6,2.3c-1.1-0.1-1.2,0.1-1.2,1.1c0.1,2,0,4.1,0,6.2
			c0,0.6-0.1,1.1-0.7,1.3c-1,0.4-2,0.8-3,1.2c-0.6,0.2-0.9,0-0.9-0.7c0-2.2,0-4.5,0-6.7C88.8,61.7,88.8,59.7,88.8,57.7z M93.3,52.6
			c0,1.5,0,3,0,4.5c0,0.3,0.3,0.9,0.5,0.9c1.2,0.1,2.5,0.2,3.6-0.1c3-0.8,4.4-4.3,3.3-7.7c-1-2.9-3.9-4-7-2.9
			c-0.2,0.1-0.5,0.5-0.5,0.8C93.3,49.6,93.3,51.1,93.3,52.6z"/>
		<path id="XMLID_184_" class="st0" d="M170,51.9c0,2.4,0,4.8,0,7.2c0,0.7-0.2,1.1-0.8,1.4c-0.6,0.2-1.1,0.6-1.7,0.8
			c-1.3,0.5-1.4,0.5-1.5-0.9c-0.1-0.7-0.3-0.3-0.5-0.2c-5.1,3.4-11.9,0.1-12.5-6c-0.3-2.9,0.3-5.5,2.2-7.7c2.5-2.9,6.1-3.7,10-2.3
			c0.4,0.1,0.8,0.6,1-0.2c0-0.1,0.8-0.1,1.2-0.1c0.9,0,2-0.2,2.5,0.2c0.4,0.4,0.1,1.6,0.1,2.4C170,48.3,170,50.1,170,51.9z
			 M165.4,52.3C165.4,52.3,165.4,52.3,165.4,52.3c0-1.2,0-2.5,0-3.7c0-0.3-0.1-0.8-0.3-0.9c-1.1-0.5-2.2-1-3.5-0.7
			c-2.9,0.6-4.2,3.6-3.9,6.6c0.2,1.9,1,3.5,3,4.1c1.4,0.4,2.9,0.2,4.1-0.5c0.3-0.2,0.7-0.7,0.7-1.1
			C165.5,54.8,165.4,53.5,165.4,52.3z"/>
		<path id="XMLID_181_" class="st0" d="M117.8,53.6c-1.7,0-3.4,0-5.1,0c-0.8,0-0.9,0.2-0.7,0.9c0.6,2,2.1,3.1,4.1,3.3
			c2.2,0.1,4.3-0.6,6.2-1.6c0.9-0.5,1-0.3,1,0.7c0,3,0,3-2.9,3.9c-3,0.9-6,1.2-8.9-0.4c-3.1-1.7-5-5.7-4.3-9.3
			c0.8-4.2,3.4-6.9,7.3-7.5c2.7-0.4,5.1,0,7.1,1.9c2.3,2.1,2.4,4.8,2.2,7.6c0,0.2-0.6,0.5-0.9,0.5C121.3,53.7,119.6,53.6,117.8,53.6
			C117.8,53.6,117.8,53.6,117.8,53.6z M115.8,50.9C115.8,50.9,115.8,50.9,115.8,50.9c1,0,2.1,0,3.1,0c0.7,0,0.9-0.1,0.7-0.8
			c-0.4-1.7-1.8-2.9-3.5-2.9c-1.9,0-3.8,1.5-4,3.3c0,0.1,0.3,0.4,0.5,0.4C113.6,50.9,114.7,50.9,115.8,50.9z"/>
		<path id="XMLID_180_" class="st1" d="M7,45.7c3.9-1.4,7.8-2.8,11.7-4.1c3.2-1.1,6.5-2.1,9.8-3c1-0.3,1-0.7,0.6-1.4
			c-0.9-1.4-1.8-2.8-2.8-4.2c-1.2-1.7-2.4-3.3-3.6-4.9c-0.2-0.3-0.3-0.7-0.4-1c0.5,0,1.1-0.1,1.5,0.2c1.1,0.8,2.1,1.7,3.1,2.6
			c2.5,2.2,5,4.4,7.6,6.6c0.2,0.2,0.8,0.2,1.1,0.1c2.2-0.6,4.4-1.2,6.7-1.8c0.5-0.1,1.1-0.2,1.6-0.4c0.2,0.7,0.5,1.3,0.7,2
			c-0.7,0.4-1.3,1-2.1,1.3c-2,0.7-4,1.2-6,1.8c-0.6,0.2-0.9,0.4-1.1,1.1c-1.3,4.3-2.6,8.5-4,12.8c-0.1,0.2-0.1,0.5-0.2,0.6
			c-0.3,0.3-0.7,0.4-1,0.6c-0.1-0.3-0.3-0.6-0.2-0.9c0.2-2.4,0.5-4.8,0.6-7.2c0.1-1.4,0-2.8-0.1-4.2c0-0.9-0.5-1-1.3-0.7
			c-2.9,0.8-5.9,1.7-8.9,2.4c-4.4,1.1-8.7,2-13.1,3C7.1,46.5,7,46.1,7,45.7z"/>
		<path id="XMLID_179_" class="st0" d="M72,44.1c2-0.5,3.3,0.4,4.3,2c0.5,0.8,1.3,1.6,1.9,2.4c0.3,0.5,0.6,0.5,0.9,0
			c0.9-1.2,1.9-2.3,2.8-3.5c0.5-0.6,1-1,1.8-0.9c0.8,0.1,1.7,0,2.6,0c0.2,0,0.4,0.1,0.7,0.1c-0.1,0.2-0.2,0.5-0.3,0.7
			c-1.6,2-3.3,4-5,6c-0.6,0.7-0.8,1.1-0.1,1.9c2,2.3,3.9,4.7,5.8,7.1c0.2,0.3,0.3,0.6,0.5,0.9c-0.3,0-0.7,0.1-1,0.1
			c-0.3,0-0.7-0.1-1,0c-2.4,0.4-4.1-0.4-5.3-2.5c-0.5-0.9-1.3-1.5-1.9-2.4c-0.5-0.7-0.8-0.5-1.3,0c-1.1,1.4-2.3,2.8-3.5,4.2
			c-0.3,0.3-0.8,0.5-1.2,0.6c-0.9,0.1-1.8,0-2.7,0c-0.3,0-0.5-0.1-0.8-0.1c0.1-0.2,0.2-0.5,0.4-0.7c1.6-2,3.3-4.1,5-6.1
			c1.2-1.5,1.2-1.5,0-2.9c-1.6-2-3.3-4-4.9-6c-0.2-0.2-0.2-0.5-0.4-0.7c0.3,0,0.5-0.1,0.8-0.1C70.7,44.1,71.4,44.1,72,44.1z"/>
		<path id="XMLID_178_" class="st0" d="M146,52.5c0-2.5,0-4.9,0-7.4c0-0.7,0.2-1,1-1c0.9,0.1,1.9,0.1,2.8,0c0.6,0,0.8,0.2,0.8,0.8
			c0,5,0,10,0,15.1c0,0.8-0.3,0.9-0.9,0.9c-0.9,0-1.8-0.1-2.7,0c-0.7,0-0.9-0.2-0.9-0.9C146,57.4,146,55,146,52.5
			C146,52.5,146,52.5,146,52.5z"/>
		<path id="XMLID_177_" class="st0" d="M150.9,38.1c0,1.5-1.1,2.7-2.6,2.8c-1.6,0-2.8-1.2-2.8-2.8c0-1.5,1.3-2.7,2.7-2.7
			C149.7,35.4,150.9,36.6,150.9,38.1z"/>
		<path id="XMLID_176_" class="st0" d="M47.2,60.6c-0.3,0.7-0.5,1.4-0.8,2.1c-0.1,0.2-0.4,0.5-0.5,0.5c-0.2-0.1-0.4-0.3-0.6-0.5
			c0,0,0-0.1,0-0.1c-0.3-0.6-0.5-1.2-0.8-1.8c0,0.6,0,1.3-0.1,1.9c0,0.2-0.3,0.4-0.5,0.5c-0.1-0.2-0.4-0.3-0.4-0.5c0-1,0-2.1,0-3.1
			c0-0.2,0.3-0.6,0.4-0.6c0.4,0,0.9,0.1,1,0.4c0.3,0.5,0.5,1.2,0.7,1.8c0.1,0.1,0.2,0.2,0.3,0.4c0.1-0.1,0.2-0.3,0.2-0.4
			c0.2-0.5,0.4-1.1,0.6-1.6c0.2-0.7,0.7-0.7,1.2-0.5c0.2,0.1,0.4,0.6,0.4,0.9c0,0.9,0,1.9,0,2.8c0,0.2-0.3,0.4-0.4,0.6
			c-0.2-0.2-0.4-0.4-0.4-0.6c-0.1-0.7,0-1.4,0-2C47.3,60.6,47.2,60.6,47.2,60.6z"/>
		<path id="XMLID_173_" class="st0" d="M174.5,48.3c-1.6,0-2.7-1.2-2.7-2.8c0-1.6,1.1-2.8,2.7-2.8c1.6,0,2.8,1.2,2.8,2.8
			C177.3,47,176.1,48.3,174.5,48.3z M176.1,47.1c0.8-0.5,0.7-1.3,0.6-2.1c-0.1-1.1-1-1.9-2-2c-1-0.1-2,0.7-2.3,1.7
			c-0.3,1.1,0.2,2.4,1.1,2.9C174.4,48.1,175.3,47.9,176.1,47.1L176.1,47.1z"/>
		<path id="XMLID_172_" class="st0" d="M40.4,61.5c0-0.3,0-0.6,0-0.9c0.1-0.6,0-1-0.8-0.9c-0.2,0-0.4-0.2-0.6-0.4
			c0.2-0.1,0.3-0.3,0.5-0.3c0.8,0,1.7,0,2.5,0c0.2,0,0.3,0.2,0.5,0.3c-0.2,0.1-0.3,0.4-0.5,0.4c-0.9-0.1-0.9,0.5-0.8,1
			c0,0.7,0,1.3,0,2c0,0.2-0.3,0.4-0.5,0.6c-0.2-0.2-0.4-0.4-0.4-0.6C40.3,62.2,40.4,61.8,40.4,61.5z"/>
		<path id="XMLID_171_" class="st1" d="M32.1,24.1c-0.1,0-0.2-0.1-0.3-0.1C31.9,24,32,24.1,32.1,24.1z"/>
		<path id="XMLID_170_" class="st1" d="M31.1,23.9c-0.1,0-0.2-0.1-0.3-0.1C30.9,23.8,31,23.8,31.1,23.9z"/>
		<path id="XMLID_169_" class="st1" d="M21.8,23.7c-0.1,0-0.2,0.1-0.3,0.1C21.6,23.8,21.7,23.8,21.8,23.7z"/>
		<path id="XMLID_168_" class="st1" d="M22.8,23.6c-0.1,0-0.2,0.1-0.3,0.1C22.6,23.6,22.7,23.6,22.8,23.6z"/>
		<path id="XMLID_167_" class="st1" d="M28.6,23.4c-0.1,0-0.2,0-0.3,0C28.4,23.4,28.5,23.4,28.6,23.4z"/>
		<path id="XMLID_164_" class="st0" d="M176.1,47.1c-0.8,0.3-1.1-0.3-1.5-0.9c-0.1-0.2-0.3-0.3-0.5-0.4c-0.1,0.2-0.1,0.4-0.2,0.6
			c-0.1,0.3-0.2,0.5-0.3,0.8c-0.1-0.3-0.3-0.5-0.4-0.8c-0.1-0.4-0.1-0.8,0-1.3c0-0.4,0.1-1.2,0.2-1.2c0.6-0.1,1.3-0.1,1.9,0.2
			c0.2,0.1,0.4,1.1,0.3,1.2C174.8,46.2,175.6,46.5,176.1,47.1L176.1,47.1z M175.3,44.8c0-0.1,0-0.2,0-0.3c-0.3-0.1-0.6-0.2-0.9-0.2
			c-0.2,0-0.3,0.4-0.4,0.6c0.2,0.1,0.5,0.3,0.7,0.3C174.9,45.2,175.1,44.9,175.3,44.8z"/>
	</g>
</g>
</svg>
