<?xml version="1.0" encoding="utf-8"?>
<!-- Generator: Adobe Illustrator 19.0.0, SVG Export Plug-In . SVG Version: 6.00 Build 0)  -->
<svg version="1.1" id="Layer_1" xmlns="http://www.w3.org/2000/svg" xmlns:xlink="http://www.w3.org/1999/xlink" x="0px" y="0px"
	 viewBox="0 0 140.5 130.7" style="enable-background:new 0 0 140.5 130.7;" xml:space="preserve">
<style type="text/css">
	.st0{fill:none;stroke:#AFAFB0;stroke-width:3;stroke-miterlimit:10;}
</style>
<g>
	<g>
		<circle class="st0" cx="19.5" cy="67.1" r="10.1"/>
		<path class="st0" d="M37.5,130.7v-27.5c0-9.9-8.1-18-18-18s-18,8.1-18,18v27.5"/>
	</g>
	<g>
		<circle class="st0" cx="70" cy="67.1" r="10.1"/>
		<path class="st0" d="M88,130.7v-27.5c0-9.9-8.1-18-18-18s-18,8.1-18,18v27.5"/>
	</g>
	<g>
		<circle class="st0" cx="45" cy="11.6" r="10.1"/>
		<path class="st0" d="M63.1,47.7c0-9.9-8.1-18-18-18s-18,8.1-18,18"/>
	</g>
	<g>
		<circle class="st0" cx="95.3" cy="11.6" r="10.1"/>
		<path class="st0" d="M113.3,47.7c0-9.9-8.1-18-18-18s-18,8.1-18,18"/>
	</g>
	<g>
		<circle class="st0" cx="120.9" cy="67.1" r="10.1"/>
		<path class="st0" d="M139,130.7v-27.5c0-9.9-8.1-18-18-18s-18,8.1-18,18v27.5"/>
	</g>
</g>
</svg>
