<?xml version="1.0" encoding="utf-8"?>
<!-- Generator: Adobe Illustrator 19.0.0, SVG Export Plug-In . SVG Version: 6.00 Build 0)  -->
<svg version="1.1" id="Layer_1" xmlns="http://www.w3.org/2000/svg" xmlns:xlink="http://www.w3.org/1999/xlink" x="0px" y="0px"
	 viewBox="0 0 139.3 136" style="enable-background:new 0 0 139.3 136;" xml:space="preserve">
<style type="text/css">
	.st0{fill:none;stroke:#AFAFB0;stroke-width:3;stroke-miterlimit:10;}
</style>
<g>
	<g>
		<line class="st0" x1="0" y1="19.8" x2="137" y2="19.8"/>
		<polyline class="st0" points="118.4,1.1 137.1,19.8 118.4,38.6 		"/>
	</g>
	<path class="st0" d="M0,68h32.1c7.8,0,15.3,3.1,20.8,8.6l30.3,30.3c5.5,5.5,13,8.6,20.8,8.6H137"/>
	<polyline class="st0" points="118.4,49.2 137.1,68 118.4,86.7 	"/>
	<g>
		<polyline class="st0" points="118.4,97.4 137.1,116.1 118.4,134.9 		"/>
	</g>
	<path class="st0" d="M0,115.6h32.1c7.8,0,15.3-3.1,20.8-8.6l30.3-30.3c5.5-5.5,13-8.6,20.8-8.6H137"/>
</g>
</svg>
