<?xml version="1.0" encoding="utf-8"?>
<!-- Generator: Adobe Illustrator 19.0.0, SVG Export Plug-In . SVG Version: 6.00 Build 0)  -->
<svg version="1.1" id="Layer_1" xmlns="http://www.w3.org/2000/svg" xmlns:xlink="http://www.w3.org/1999/xlink" x="0px" y="0px"
	 viewBox="0 0 31.4 31.4" style="enable-background:new 0 0 31.4 31.4;" xml:space="preserve">
<style type="text/css">
	.st0{fill:#FAA949;}
</style>
<g>
	<g id="XMLID_94_">
		<polygon id="XMLID_98_" class="st0" points="14.6,23.9 8.3,16.2 9.9,14.9 14.3,20.4 21.5,8.7 23.2,9.8 		"/>
		<path id="XMLID_95_" class="st0" d="M15.7,31.4C7,31.4,0,24.4,0,15.7S7,0,15.7,0c8.7,0,15.7,7,15.7,15.7S24.4,31.4,15.7,31.4z
			 M15.7,2C8.1,2,2,8.1,2,15.7c0,7.6,6.1,13.7,13.7,13.7c7.6,0,13.7-6.1,13.7-13.7C29.4,8.1,23.3,2,15.7,2z"/>
	</g>
</g>
</svg>
