<?xml version="1.0" encoding="utf-8"?>
<!-- Generator: Adobe Illustrator 19.0.0, SVG Export Plug-In . SVG Version: 6.00 Build 0)  -->
<svg version="1.1" id="Layer_1" xmlns="http://www.w3.org/2000/svg" xmlns:xlink="http://www.w3.org/1999/xlink" x="0px" y="0px"
	 viewBox="0 0 127.2 51.1" style="enable-background:new 0 0 127.2 51.1;" xml:space="preserve">
<style type="text/css">
	.st0{fill:#FFFFFF;}
</style>
<g>
	<g>
		<g>
			<g>
				<g>
					<path class="st0" d="M20.1,22.6h5.3v28.1h-5.3V22.6z"/>
				</g>
				<g>
					<path class="st0" d="M27.3,43.2V31.4h5.4v11.1c0,2.6,1.2,4.1,3.5,4.1c2,0,3.7-1.4,3.7-4.6V31.4h5.3v19.3h-5.2v-2.1
						c-1.3,1.5-3.1,2.5-5.3,2.5C30,51.1,27.3,48.2,27.3,43.2z"/>
				</g>
				<g>
					<path class="st0" d="M47.1,26.9l5.3-2.9v7.4H56v4.7h-3.6v6.1c0,3,0.4,3.5,3.6,3.5v4.9h-0.8c-6.1,0-8.1-2.1-8.1-8.4V26.9z"/>
				</g>
				<g>
					<path class="st0" d="M56.3,41.1c0-5.6,4.4-10,10-10c4.4,0,7.8,2.5,9.3,6.1l-4.7,2c-0.7-1.8-2.5-3.1-4.5-3.1
						c-2.8,0-4.9,2.2-4.9,5s2.2,5,4.9,5c2,0,3.8-1.3,4.5-3.1l4.7,2c-1.5,3.6-4.9,6.1-9.3,6.1C60.7,51.1,56.3,46.6,56.3,41.1z"/>
				</g>
				<g>
					<path class="st0" d="M76.4,22.6h5.2v11C83,32,84.8,31,87,31c4.5,0,7.3,2.9,7.3,7.9v11.8h-5.4v-11c0-2.6-1.2-4.1-3.5-4.1
						c-2,0-3.7,1.4-3.7,4.6v10.5h-5.3V22.6z"/>
				</g>
				<g>
					<path class="st0" d="M0,41.1c0-5.6,4.4-10,10-10c4.4,0,7.8,2.5,9.3,6.1l-4.7,2c-0.7-1.8-2.5-3.1-4.5-3.1c-2.8,0-4.9,2.2-4.9,5
						s2.2,5,4.9,5c2,0,3.8-1.3,4.5-3.1l4.7,2c-1.5,3.6-4.9,6.1-9.3,6.1C4.4,51.1,0,46.6,0,41.1z"/>
				</g>
			</g>
		</g>
	</g>
	<path class="st0" d="M124,5.7c-0.7-0.8-1.5-1.5-2.3-2.2c-0.3-0.3-0.8-0.3-1.1,0l-10.2,7.6L124,5.7z"/>
	<path class="st0" d="M118.7,1.7c-0.9-0.5-1.9-0.8-3-1.1c-0.4-0.1-0.8,0.1-1,0.4l-6.5,11L118.7,1.7z"/>
	<path class="st0" d="M112.3,0c-1.1-0.1-2.1,0-3.2,0.1c-0.4,0.1-0.7,0.4-0.8,0.8l-1.8,12.6L112.3,0z"/>
	<path class="st0" d="M105.8,0.9c-1,0.3-2,0.8-2.9,1.3c-0.4,0.2-0.5,0.6-0.4,1l3.2,12.3L105.8,0.9z"/>
	<path class="st0" d="M100.1,4.2c-0.8,0.7-1.5,1.5-2.2,2.3c-0.3,0.3-0.3,0.8,0,1.1l7.7,10.1L100.1,4.2z"/>
	<path class="st0" d="M96.1,9.5c-0.5,0.9-0.8,1.9-1.1,3c-0.1,0.4,0.1,0.8,0.4,1l11,6.4L96.1,9.5z"/>
	<path class="st0" d="M94.5,15.9c-0.1,1.1,0,2.1,0.1,3.2c0.1,0.4,0.4,0.7,0.8,0.8l12.6,1.7L94.5,15.9z"/>
	<path class="st0" d="M95.4,22.4c0.3,1,0.8,2,1.3,2.9c0.2,0.4,0.6,0.5,1,0.4l12.3-3.3L95.4,22.4z"/>
	<path class="st0" d="M98.7,28.1c0.7,0.8,1.5,1.5,2.3,2.1c0.3,0.3,0.8,0.3,1.1,0l10.1-7.7L98.7,28.1z"/>
	<path class="st0" d="M104,32.1c1,0.5,1.9,0.8,3,1.1c0.4,0.1,0.8-0.1,1-0.4l6.4-11L104,32.1z"/>
	<path class="st0" d="M110.4,33.7c1.1,0.1,2.1,0,3.2-0.1c0.4-0.1,0.7-0.4,0.8-0.8l1.7-12.6L110.4,33.7z"/>
	<path class="st0" d="M127.2,11.2c-0.4-1-0.8-2-1.3-2.9c-0.2-0.4-0.6-0.5-1-0.4l-12.3,3.4L127.2,11.2z"/>
</g>
</svg>
