<?xml version="1.0" encoding="utf-8"?>
<!-- Generator: Adobe Illustrator 19.0.0, SVG Export Plug-In . SVG Version: 6.00 Build 0)  -->
<svg version="1.1" id="Layer_1" xmlns="http://www.w3.org/2000/svg" xmlns:xlink="http://www.w3.org/1999/xlink" x="0px" y="0px"
	 viewBox="0 0 168 55.4" style="enable-background:new 0 0 168 55.4;" xml:space="preserve">
<style type="text/css">
	.st0{fill:#6C6C6C;}
	.st1{fill:#727273;}
	.st2{fill:#6C6C6B;}
	.st3{fill:#6B6B6B;}
	.st4{fill:#6D6C6C;}
	.st5{fill:#6D6D6D;}
	.st6{fill:#727171;}
	.st7{fill:#717070;}
</style>
<g id="XMLID_135_">
	<g id="XMLID_190_">
		<defs>
			<polyline id="XMLID_189_" points="105.2,-5.8 -81,-5.8 -81,87.6 105.2,87.6 105.2,-5.8 			"/>
		</defs>
		<clipPath id="XMLID_119_">
			<use xlink:href="#XMLID_189_"  style="overflow:visible;"/>
		</clipPath>
	</g>
</g>
<g id="XMLID_28_">
	<g id="XMLID_92_">
		<path id="XMLID_117_" class="st0" d="M79.1,19c-0.3,1-0.6,1.9-0.9,2.9c-1.8,6.1-3.6,12.3-5.4,18.4c-0.2,0.5-0.5,0.4-0.8,0.5
			c-0.4,0-0.5-0.1-0.6-0.5c-2-6.9-4.1-13.8-6.1-20.8c0-0.1-0.1-0.3-0.2-0.4C65,19.3,65,19.5,65,19.7c0,5.2,0,10.5,0,15.7
			c0,0.7,0,1.4,0.1,2c0.2,1.4,1.2,2.2,2.6,2.2c0.7,0,0.4,0.4,0.5,0.7c0.1,0.4-0.1,0.5-0.5,0.5c-2.2,0-4.4,0-6.7,0
			c-0.4,0-0.6-0.1-0.5-0.5c0-0.1,0-0.2,0-0.4c0-0.2,0.1-0.3,0.3-0.3c1.7-0.1,2.4-0.8,2.6-2.5c0.1-0.7,0.1-1.4,0.1-2.1
			c0-4.8,0-9.7,0-14.5c0-0.5,0-1-0.1-1.4c-0.2-1-0.6-1.3-1.6-1.4c-0.2,0-0.5,0-0.7,0c-0.2,0-0.5,0.1-0.5-0.1c-0.1-0.3,0-0.7,0-1
			c0-0.1,0.2-0.1,0.3-0.1c2.2,0,4.4,0,6.5,0c0.3,0,0.3,0.2,0.4,0.4c0.9,3.1,1.8,6.2,2.7,9.2c0.8,2.6,1.6,5.3,2.3,7.9
			c0,0.1,0,0.2,0.1,0.2c0.7-2.2,1.3-4.4,2-6.6c1.1-3.6,2.2-7.2,3.2-10.7c0.1-0.3,0.2-0.4,0.6-0.4c2.1,0,4.2,0,6.3,0
			c0.4,0,0.6,0.1,0.5,0.5c0,0.1,0,0.2,0,0.3c0,0.3-0.1,0.4-0.4,0.4c-0.5,0-1,0-1.5,0.2c-0.6,0.2-0.9,0.6-1,1.2
			c-0.1,0.5-0.1,1.1-0.1,1.6c0,5.3,0,10.6,0,15.9c0,0.5,0,0.9,0.1,1.4c0.2,1,0.6,1.4,1.6,1.6c0.3,0,0.6,0.1,0.9,0.1
			c0.3,0,0.4,0,0.4,0.4c0,0.8,0,0.8-0.8,0.8c-2.7,0-5.4,0-8,0c-0.4,0-0.5-0.1-0.5-0.5c0-0.7,0-0.7,0.7-0.7c0.3,0,0.6-0.1,0.9-0.1
			c0.7-0.2,1.1-0.6,1.2-1.4c0-0.4,0.1-0.8,0.1-1.2c0-5.8,0-11.7,0-17.5C79.1,19.3,79.1,19.1,79.1,19C79.1,19,79.1,19,79.1,19z"/>
		<path id="XMLID_116_" class="st1" d="M19,27c0,2.9,0,5.8,0,8.7c0,0.4,0,0.8,0.1,1.2c0.1,1.5,0.9,2.2,2.4,2.4c0.5,0,1,0.1,1.4,0.1
			c0.2,0,0.3,0.1,0.3,0.3c0,1.1,0.1,1.1-1.1,1.1c-3.7,0-7.3,0-11,0c-0.4,0-0.5-0.1-0.5-0.5c0-0.9,0-0.9,0.8-0.9
			c0.4,0,0.8-0.1,1.2-0.1c1.5-0.3,2-0.8,2.1-2.3c0-0.4,0.1-0.8,0.1-1.2c0-6.1,0-12.3,0-18.4c0-0.4-0.1-0.6-0.6-0.6
			c-3.1,0.2-5.3,2.1-6.1,5.4c-0.2,0.7-0.3,1.5-0.4,2.2c0,0.3-0.1,0.3-0.4,0.3c-1-0.1-1.1-0.1-1-1.2c0.1-2.5,0.1-5,0.2-7.5
			c0-0.3,0.1-0.5,0.5-0.5c6.5,0,13,0,19.5,0c0.4,0,0.5,0.1,0.5,0.5c0.1,2.7,0.2,5.4,0.3,8.2c0,0.3-0.1,0.3-0.3,0.4
			c-1.1,0.2-1,0.2-1.2-0.8c-0.3-2-0.9-3.8-2.4-5.2c-1.2-1.1-2.7-1.6-4.3-1.7c-0.3,0-0.3,0.1-0.3,0.3c0,0.9,0,1.8,0,2.7
			C19,22.2,19,24.6,19,27z"/>
		<path id="XMLID_113_" class="st2" d="M107,26.1c0.8-1.3,1.8-2.1,3.3-2.4c2.6-0.4,4.9,0.6,6.3,2.9c0.8,1.3,1.2,2.8,1.3,4.3
			c0.2,2.3-0.1,4.6-1.2,6.7c-1,1.9-2.5,3.2-4.7,3.6c-1.5,0.2-2.9,0-4.1-0.9c-0.3-0.3-0.7-0.5-1-0.8c-0.6-0.4-0.9-0.4-1.3,0.2
			c-0.3,0.3-0.5,0.7-0.7,1c-0.1,0.2-1.2,0.3-1.3,0.2c-0.1-0.1,0-0.2,0-0.3c0.2-0.8,0.3-1.5,0.3-2.3c0-6.2,0-12.3,0-18.5
			c0-0.3,0-0.6-0.1-0.9c-0.2-0.9-0.6-1.2-1.6-1.2c-0.4,0-0.5-0.1-0.5-0.5c0-0.1,0-0.3,0-0.4c0-0.2,0-0.3,0.3-0.3
			c1.6-0.1,3.1-0.1,4.7-0.2c0.4,0,0.4,0.2,0.4,0.5c0,3,0,6,0,9C107,25.8,107,26,107,26.1z M114.4,32.1c0-0.6,0-1.2-0.1-1.9
			c-0.1-1.2-0.3-2.5-0.9-3.6c-1-1.9-3.1-2.3-4.7-0.8c-0.9,0.8-1.4,1.8-1.7,3c-0.5,2.2-0.5,4.4-0.1,6.6c0.2,1.2,0.5,2.4,1.3,3.3
			c1.2,1.5,3.8,1.8,5-0.4c0.3-0.5,0.5-0.9,0.6-1.5C114.3,35.4,114.4,33.8,114.4,32.1z"/>
		<path id="XMLID_110_" class="st0" d="M85.9,32.6c0-2.2,0.4-4.1,1.4-5.8c1.5-2.3,3.6-3.3,6.3-3.3c3.3,0.1,5.6,2.2,6.6,5.1
			c0.9,2.7,0.9,5.4-0.2,8.1c-1.2,3.1-3.7,4.7-7,4.6c-3-0.1-5.4-1.9-6.5-4.9C86.1,35.1,85.9,33.8,85.9,32.6z M97.3,32.4
			c0-0.9,0-1.8-0.1-2.7c-0.1-1.2-0.4-2.4-1-3.4c-1.3-2.1-3.8-2.2-5.3-0.3c-0.5,0.7-0.8,1.4-1,2.2c-0.5,2.2-0.5,4.5-0.2,6.8
			c0.1,1.2,0.4,2.4,1,3.4c1.2,2.2,4,2.3,5.4,0.2c0.3-0.5,0.5-1,0.7-1.5C97.2,35.6,97.3,34,97.3,32.4z"/>
		<path id="XMLID_107_" class="st0" d="M146.3,32.3c-1.5,0-3.1,0-4.6,0c-0.3,0-0.5,0-0.5,0.4c0.1,1.5,0.1,3,0.6,4.4
			c0.5,1.4,1.3,2.4,2.8,2.7c1.6,0.3,3-0.2,4-1.5c0.5-0.6,0.9-1.2,1.2-1.9c0.1-0.2,0.2-0.3,0.5-0.2c0.9,0.4,0.9,0.4,0.4,1.3
			c-0.8,1.4-1.8,2.7-3.4,3.4c-2.6,1-6.5,0.6-8.3-3.2c-1.7-3.6-1.7-7.2,0.1-10.8c0.9-1.7,2.3-2.9,4.2-3.3c2.8-0.6,5.4,0.7,6.8,3.4
			c0.8,1.5,1.1,3.2,1.2,4.9c0,0.3-0.1,0.4-0.4,0.4C149.4,32.3,147.8,32.3,146.3,32.3z M144.6,31c0.7,0,1.3,0,2,0
			c0.4,0,1,0.2,1.3-0.1c0.3-0.3,0.1-0.9,0.1-1.3c-0.1-1.3-0.3-2.5-1-3.6c-1.1-1.6-3.1-1.7-4.2-0.2c-0.3,0.4-0.5,0.8-0.7,1.2
			c-0.4,1.1-0.6,2.3-0.6,3.6c0,0.3,0.1,0.4,0.4,0.4C142.6,31,143.6,31,144.6,31z"/>
		<path id="XMLID_106_" class="st3" d="M134.2,26.9c0,3.3,0,6.5,0,9.8c0,0.6,0,1.2,0.1,1.9c0.2,0.8,0.5,1.1,1.3,1.2
			c0.1,0,0.2,0,0.2,0c0.8,0,0.8,0,0.8,0.8c0,0.3-0.1,0.3-0.3,0.3c-2.5,0-4.9,0-7.4,0c-0.3,0-0.4-0.1-0.4-0.4c0-0.1,0-0.3,0-0.4
			c0-0.3,0.1-0.4,0.3-0.3c0.3,0,0.7,0,1-0.1c0.5-0.1,0.8-0.4,0.9-0.8c0.2-0.5,0.2-1,0.2-1.6c0-5.7,0-11.4,0-17.1c0-0.5,0-1-0.2-1.4
			c-0.2-0.8-0.6-1-1.6-1.1c-0.2,0-0.4,0.1-0.5-0.1c-0.1-0.3,0-0.6,0-1c0-0.1,0.2-0.1,0.3-0.1c1.5-0.1,3-0.1,4.6-0.2
			c0.4,0,0.5,0.1,0.5,0.5C134.1,20.1,134.2,23.5,134.2,26.9z"/>
		<path id="XMLID_105_" class="st3" d="M124.8,30.7c0,2.1,0,4.2,0,6.3c0,0.5,0,1,0.1,1.4c0.2,0.8,0.6,1.1,1.4,1.2c0.1,0,0.3,0,0.4,0
			c0.5-0.1,0.6,0.1,0.6,0.6c0,0.4-0.1,0.6-0.6,0.6c-2.3,0-4.7,0-7,0c-0.3,0-0.5,0-0.5-0.4c0-0.7,0-0.7,0.7-0.7
			c1.1,0,1.5-0.4,1.7-1.5c0.1-0.4,0.1-0.7,0.1-1.1c0-3.1,0-6.3,0-9.4c0-0.3,0-0.7-0.1-1c-0.2-1.2-0.5-1.5-1.7-1.5
			c-0.2,0-0.5,0.1-0.5-0.1c-0.1-0.3,0-0.6,0-1c0-0.1,0.2-0.1,0.3-0.1c1.6-0.1,3.1-0.1,4.7-0.2c0.4,0,0.4,0.1,0.4,0.5
			C124.8,26.4,124.8,28.6,124.8,30.7z"/>
		<path id="XMLID_104_" class="st4" d="M55.8,32.3c-0.7,0-1.5,0-2.2,0c-0.3,0-0.4,0-0.4-0.3c0-1.5,0-3,0-4.4c0-0.3,0.1-0.4,0.4-0.4
			c1.5,0,3,0,4.5,0c0.3,0,0.4,0.1,0.4,0.4c0,1.5,0,2.9,0,4.4c0,0.3-0.1,0.4-0.4,0.4C57.3,32.3,56.5,32.3,55.8,32.3z"/>
		<path id="XMLID_103_" class="st5" d="M158.2,32.3c-0.7,0-1.4,0-2.1,0c-0.3,0-0.4,0-0.4-0.4c0-1.5,0-2.9,0-4.4
			c0-0.3,0.1-0.4,0.4-0.4c1.5,0,3,0,4.5,0c0.3,0,0.4,0.1,0.4,0.4c0,1.5,0,2.9,0,4.4c0,0.3-0.1,0.4-0.4,0.4
			C159.7,32.3,159,32.3,158.2,32.3z"/>
		<path id="XMLID_102_" class="st2" d="M9.1,32.3c-0.7,0-1.5,0-2.2,0c-0.3,0-0.3-0.1-0.3-0.3c0-1.5,0-3,0-4.4c0-0.3,0.1-0.4,0.4-0.4
			c1.5,0,3,0,4.4,0c0.3,0,0.4,0.1,0.4,0.4c0,1.5,0,3,0,4.4c0,0.3-0.1,0.4-0.4,0.4C10.6,32.3,9.8,32.3,9.1,32.3z"/>
		<path id="XMLID_101_" class="st2" d="M24.8,32.3c-0.7,0-1.5,0-2.2,0c-0.3,0-0.4-0.1-0.4-0.4c0-1.5,0-3,0-4.4
			c0-0.3,0.1-0.3,0.3-0.3c1.5,0,3,0,4.5,0c0.2,0,0.4,0,0.4,0.3c0,1.5,0,3,0,4.5c0,0.3-0.1,0.3-0.4,0.3
			C26.3,32.3,25.5,32.3,24.8,32.3z"/>
		<path id="XMLID_100_" class="st2" d="M40.2,32.3c-0.7,0-1.4,0-2.1,0c-0.3,0-0.4,0-0.4-0.3c0-1.5,0-3,0-4.4c0-0.2,0-0.4,0.3-0.4
			c1.5,0,3,0,4.5,0c0.3,0,0.4,0.1,0.4,0.4c0,1.5,0,2.9,0,4.4c0,0.3-0.1,0.4-0.4,0.4C41.8,32.3,41,32.3,40.2,32.3z"/>
		<path id="XMLID_99_" class="st0" d="M123,20.3c-1.1,0-2.1-0.9-2.1-2c0-1.1,0.9-2,2-2c1.1,0,2,0.9,2,2
			C125.1,19.4,124.2,20.3,123,20.3z"/>
		<path id="XMLID_96_" class="st6" d="M164.9,24.5c0,1.1-0.8,1.9-1.9,1.9c-1,0-1.9-0.8-1.9-1.9c0-1.1,0.8-1.9,1.9-1.9
			C164.1,22.7,164.9,23.5,164.9,24.5z M164,25.6c0.2,0.1,0.3-0.2,0.4-0.3c0.4-0.6,0.2-1.5-0.4-2c-0.6-0.5-1.5-0.4-2,0.2
			c-0.5,0.6-0.6,1.4-0.1,2c0.5,0.6,1.4,0.7,2,0.3C163.9,25.8,164.1,25.7,164,25.6L164,25.6z"/>
		<path id="XMLID_93_" class="st7" d="M164,25.6c-0.4,0.1-0.6-0.2-0.8-0.5c-0.1-0.1-0.1-0.4-0.3-0.3c-0.2,0.1-0.1,0.3-0.1,0.4
			c0,0.1,0,0.2,0,0.2c0,0.1-0.1,0.1-0.2,0.1c-0.1,0-0.2-0.1-0.2-0.2c0-0.5,0-1.1,0-1.6c0-0.1,0-0.1,0-0.2c0.1-0.1,0.9,0,1.1,0.1
			c0.3,0.2,0.3,0.6,0.1,0.8c-0.2,0.2-0.2,0.3,0,0.5C163.8,25.2,163.9,25.4,164,25.6C164,25.6,164,25.6,164,25.6z M163.3,24.1
			c0-0.2-0.2-0.2-0.3-0.2c-0.2,0-0.2,0.2-0.2,0.3c0,0.2,0.1,0.2,0.2,0.2C163.2,24.4,163.3,24.3,163.3,24.1z"/>
	</g>
</g>
</svg>
