<?xml version="1.0" encoding="utf-8"?>
<!-- Generator: Adobe Illustrator 19.0.0, SVG Export Plug-In . SVG Version: 6.00 Build 0)  -->
<svg version="1.1" id="Layer_1" xmlns="http://www.w3.org/2000/svg" xmlns:xlink="http://www.w3.org/1999/xlink" x="0px" y="0px"
	 viewBox="0 0 213.3 46.9" style="enable-background:new 0 0 213.3 46.9;" xml:space="preserve">
<g id="XMLID_105_">
	<g id="XMLID_132_">
		<path id="XMLID_151_" d="M100.8,29.3c2,1.3,3.7,1.1,5.1-1.2c0.1,0.2,0.2,0.4,0.3,0.6c-0.2,0.5-0.3,1.1-0.6,1.5
			c-0.8,1-1.7,1.9-2.7,2.7c-0.4,0.3-1.2,0.5-1.7,0.4c-2.8-0.7-3-0.6-4,2.1c-1.4,0.5-2.7,0.9-4.3,1.5c1-1.7,1.8-3.2,2.8-5
			c-2.1,1.5-3.8,2.7-5.6,3.8c-0.5,0.3-1.3,0.4-1.9,0.6c-0.1-0.7-0.5-1.4-0.4-2.1c0.2-1.5,0.7-3,1.1-4.7c-1.7-0.6-3.4-1.2-5.2-1.7
			c-0.3-0.1-1,0.5-1.2,0.9c-1.1,1.8-2.1,3.6-3.2,5.4c0.2,0.1,0.6,0.2,1.2,0.4c-2.1,1-4,1.9-6,2.9c-0.1-0.1-0.3-0.3-0.4-0.4
			c5-8,10-15.9,15-24c-0.4-0.1-0.8-0.2-1.2-0.3c0-0.1,0-0.3-0.1-0.4c2.2-0.5,4.4-1.1,7.1-1.7c-3.4,4.7-6.5,9.1-9.6,13.4
			c0.1,0.2,0.3,0.3,0.4,0.5c2.7-3.2,6-4.7,10.3-3.5c-2.9,1.6-5.7,3.2-8.6,4.8c2.4,1.6,2.9,1.5,4.7-0.5c0.7-0.7,1.4-1.5,2.1-2.1
			c2-1.8,4.3-3,7.2-2.7c1.7,0.1,3.4,0,5.5,0C104.6,23.6,102.7,26.4,100.8,29.3z M93.8,27.3c0.1,0.3,0.2,0.6,0.3,0.9
			c1.1-0.1,2.7,0.3,3.3-0.3c1.8-1.7,3.3-3.7,5-5.6c0-0.2-0.1-0.3-0.1-0.5c-1,0.1-2.2-0.1-2.8,0.4C97.4,23.6,95.6,25.5,93.8,27.3z
			 M91.4,33.2c1.1-0.8,2-1.4,3.1-2.2C92.1,30.2,91.6,30.6,91.4,33.2z"/>
		<path id="XMLID_150_" d="M51.4,13.5c-1.5,0.6-3.2,1.1-4.6,1.9c-2.9,1.6-5.8,3.4-8.6,5.1c-0.3,0.2-0.6,0.3-0.9,0.5
			c0.1,0.2,0.2,0.4,0.4,0.6c1.7-0.3,3.5-0.5,5.1-0.8c-0.5,0.7-0.9,1.5-1.5,2.1c-0.5,0.4-1.2,0.7-1.8,0.8c-1.9,0.2-4-0.1-5.8,0.4
			c-1.7,0.5-3.2,1.7-4.8,2.6c-1,0.6-1.8,1.2-2.8,1.8c-0.2,0.1-0.5,0.1-0.6,0.2c-1.6,1.2-3.1,2.6-4.9,3.6c-2,1.2-3.5,3.3-6.3,3.4
			c-1.3,0-2.6,0.9-3.9,1.3c-0.5,0.2-1.1,0.2-1.7,0.1c4.8-4.6,10.3-8.3,15.9-11.8c-0.1-0.2-0.1-0.4-0.2-0.6c-6.3,1.3-12.6,2.6-18.9,4
			c-0.1-0.1-0.2-0.2-0.3-0.2c1.6-1.2,3.3-2.3,4.9-3.5c3.3-2.6,7.4-1.8,11.1-2.4c2.8-0.4,5.7-0.5,8.6-0.8c0.7-0.1,1.4-0.4,2.1-0.8
			c7.1-4.4,14.3-8.6,22.1-11.6c1-0.4,2-0.6,3-0.9c0.3-0.1,0.6,0,1.1,0c-1.2,1.9-1.9,3.9-4.5,4.2C52.7,12.7,52,13.2,51.4,13.5
			C51.3,13.5,51.4,13.5,51.4,13.5z"/>
		<path id="XMLID_149_" d="M135.7,20.1c1.8-0.2,3.7-0.3,5.5-0.5c-1.4,1.1-2.6,2.1-3.9,3c-0.4,0.2-1,0.3-1.4,0.2
			c-4-1.1-7,0.4-9.9,3.1c-1.3,1.2-3.1,2-4.7,3c-0.6,0.4-1.1,0.9-1.6,1.3c-0.8,0.6-1.7,1.1-2.6,1.6c-0.4,0.2-1.1,0.3-1.2,0.6
			c-0.8,1.6-2.1,1.9-3.7,2.2c-2.2,0.4-4.3,1.2-6.4,1.9c-0.2,0.1-0.4-0.1-0.8-0.5c5.9-4.4,12.2-8.3,18.3-12.3
			c-0.1-0.2-0.1-0.3-0.2-0.5c-5.7,1.4-11.4,2.8-17,4.2c1.4-2.3,7.4-5.9,10.4-6.1c3.5-0.2,6.9-0.4,10.4-0.6c0.9-0.1,1.9-0.4,2.8-0.8
			c7.5-3.8,14.9-7.7,22.3-11.5c1-0.5,2.3-0.7,3.8-1.1c-0.8,1.5-1.3,2.6-2,3.5c-0.2,0.3-0.7,0.5-1.1,0.6c-3.6,0.6-6.9,2-9.8,4.2
			c-1.8,1.3-3.9,2.2-5.9,3.3c-0.5,0.3-0.9,0.7-1.3,1C135.6,19.9,135.7,20,135.7,20.1z"/>
		<path id="XMLID_146_" d="M70.9,20.8c-2.7,4.2-5.4,8.3-8.1,12.5c0.5,0.2,0.9,0.3,1.5,0.5c-1.9,0.9-3.7,1.8-5.4,2.7
			c-0.1-0.1-0.2-0.2-0.3-0.2c0.9-1.9,1.7-3.8,2.6-5.7c-0.1-0.1-0.2-0.1-0.3-0.2c-1.5,1.4-2.9,2.8-4.4,4.1c-0.8,0.7-1.7,1.4-2.7,2
			c-1.2,0.7-1.9,0.2-1.9-1.1c-0.1-4.1,6-12.7,10.1-13.7c2.6-0.6,5.3-0.8,8-1.1C70.2,20.4,70.5,20.7,70.9,20.8z M54.7,33.2
			c0.2,0.1,0.4,0.3,0.6,0.4c4.1-3.2,7.6-6.8,10.8-11.1c-1.8-0.4-3.1,0-4.1,1.1c-1.7,2-3.4,4-4.9,6C56.2,30.7,55.5,32,54.7,33.2z"/>
		<path id="XMLID_145_" d="M184.4,25.3c-1,0.7-1.7,1.1-2.3,1.6c-2.5,2.5-5,5.1-7.6,7.4c-0.8,0.7-2.1,0.7-3.6,1.1
			c2.9-4.6,5.5-8.8,8.1-13c-0.3-0.2-0.6-0.3-1.2-0.6c2.3-0.6,4.3-1.2,6.5-1.8c-1.7,2.5-3.3,4.9-4.9,7.2c0.1,0.1,0.2,0.2,0.2,0.3
			c0.6-0.5,1.3-1,1.9-1.6c2.2-1.8,4.4-3.7,6.7-5.4c0.7-0.5,1.7-0.6,2.6-0.9c0.2,0.2,0.3,0.4,0.5,0.6c-2.4,3.8-4.8,7.6-7.3,11.5
			c0.8,0.1,1.1,0.1,1.4,0.1c0,0.2,0.1,0.3,0.1,0.5c-1.8,0.8-3.6,1.5-5.4,2.3c-0.1-0.1-0.3-0.3-0.4-0.4
			C180.6,31.2,182.9,28.7,184.4,25.3z"/>
		<path id="XMLID_144_" d="M59.9,11.5c-0.5-0.1-0.9-0.3-1.2-0.4c0-0.1,0-0.2,0-0.4c2-0.3,4.1-0.6,6.1-0.9c0.1,0.1,0.2,0.3,0.3,0.4
			c-5.8,7.6-12.2,14.8-17,23.3c0.7,0.1,1.2,0.1,1.6,0.2c0,0.2,0.1,0.3,0.1,0.5c-2.3,0.8-4.5,1.7-6.8,2.5c-0.2-0.2-0.3-0.4-0.5-0.6
			c2.8-4.2,5.4-8.4,8.3-12.4C53.7,19.6,56.8,15.7,59.9,11.5z"/>
		<path id="XMLID_143_" d="M173.5,10.4c-0.5-0.1-0.8-0.2-1.1-0.2c0-0.1,0-0.2,0-0.4c2.1-0.4,4.2-0.7,6.5-1.1
			c-6,8.1-11.8,15.9-17.9,24.1c1,0.1,1.6,0.1,2.1,0.1c0,0.1,0.1,0.2,0.1,0.3c-2.2,0.9-4.3,1.8-6.5,2.7c-0.1-0.1-0.3-0.3-0.4-0.4
			c0.6-1.1,1.1-2.2,1.8-3.2c4.8-6.8,9.6-13.5,14.3-20.2C172.7,11.5,173,11,173.5,10.4z"/>
		<path id="XMLID_142_" d="M70.7,30.3c-0.7,0.1-1.4,0.3-2.2,0.4c-1,0.1-1.4-0.3-1-1.2c0.4-0.8,0.9-1.6,1.5-2.3
			c1.9-2.1,3.8-4.2,5.7-6.2c0.4-0.4,1.1-0.6,1.7-0.7c0.6-0.1,1.2,0,1.9,0c0.4,0,0.8,0.2,1.2,0.3c-0.2,0.4-0.4,0.8-0.7,1.1
			c-2,1.8-4,3.5-6,5.3c-0.2,0.2-0.3,0.5-0.8,1.1c1.7-0.5,2.9-1,4.2-1.3c0.6-0.1,1.2-0.1,1.8-0.1c-0.2,0.7-0.1,1.6-0.6,2
			c-1.5,1.4-3.2,2.6-4.7,3.9c-1.7,1.4-3.2,3.1-4.9,4.5c-1,0.8-2.2,1.4-3.3,2.1c-0.9,0.6-1.9,1.2-2.8,1.7c-0.9-2-0.7-2.5,0.9-3.7
			c2.8-2.1,5.5-4.3,8.2-6.5C70.9,30.6,70.8,30.4,70.7,30.3z"/>
		<path id="XMLID_141_" d="M202.1,28.9c-0.7,0.1-1.3,0.1-2,0.3c-1.4,0.4-1.6-0.4-1.3-1.4c0.3-0.7,0.8-1.4,1.3-2
			c1.9-2.1,3.8-4.3,5.9-6c1-0.8,2.8-0.7,4.3-0.6c-2.2,2.3-4.5,4.7-6.7,7c0.1,0.2,0.2,0.3,0.3,0.5c1.1-0.4,2.3-1,3.4-1.3
			c0.6-0.2,1.6-0.2,1.8,0.1c0.5,0.7,0.1,1.4-0.7,2c-3.2,2.7-6.2,5.6-9.5,8.3c-1.6,1.4-3.5,2.5-5.3,3.6c-0.2,0.1-0.9-0.1-1.1-0.4
			c-0.7-1.1-0.2-2,0.7-2.7c2.9-2.3,5.8-4.6,8.7-6.9C202.2,29.2,202.1,29,202.1,28.9z"/>
		<path id="XMLID_140_" d="M51.3,13.5c1.2-0.2,2.3-0.3,3.5-0.5c0.1,0.1,0.1,0.3,0.2,0.4C49.9,20,44.8,26.5,39.7,33.1
			c0.1,0.1,0.2,0.3,0.4,0.4c0.7-0.1,1.4-0.1,2.1-0.2c0.1,0.2,0.1,0.3,0.2,0.5c-2.9,1.1-5.7,2.2-8.6,3.3c4.2-7.3,9-13.9,14.6-20
			C49.4,15.9,50.4,14.7,51.3,13.5C51.4,13.5,51.3,13.5,51.3,13.5z"/>
		<path id="XMLID_139_" d="M152.9,12.1c-5.2,6.7-10.3,13.2-15.8,20.1c1.3,0.1,1.9,0.2,2.9,0.3c-2.6,2-5.6,2.1-8.3,3.2
			c-0.1-0.1-0.2-0.3-0.3-0.4c0.7-1.2,1.3-2.5,2.1-3.6c4.9-6.2,9.9-12.4,14.9-18.5C149.4,12.1,150.2,11.9,152.9,12.1z"/>
		<path id="XMLID_138_" d="M197.9,29.2c-2.8,1.9-5.7,3.8-8.6,5.6c-0.4,0.3-1.4,0.3-1.7,0c-0.4-0.4-0.8-1.4-0.6-1.8
			c1.8-4.4,3.6-9,7.7-11.9c1.6-1.2,3.5-1.7,5.5-1c1.4,0.4,1.4,1.3,0.4,2.3c-1.6,1.6-3,3.2-4.5,4.8c-0.6,0.6-1.4,1.1-2.2,1.7
			c-0.2-0.2-0.4-0.4-0.6-0.6c2.2-2.2,4.3-4.4,6.5-6.7c-0.1-0.2-0.2-0.3-0.3-0.5c-0.6,0.3-1.4,0.5-1.9,0.9c-2.9,3-5.3,6.3-7.1,10.4
			c2.9-0.5,4.3-3.5,7-3.9C197.6,28.7,197.7,29,197.9,29.2z"/>
		<path id="XMLID_137_" d="M153.3,33c-1.8,0.9-3.7,1.8-5.5,2.8c-0.1-0.2-0.3-0.3-0.4-0.5c2.6-4,5.1-8,7.8-12.1
			c-0.3-0.3-0.7-0.6-1.3-1.1c2.1-0.8,4.1-1.5,6.6-2.4c-1,1.7-1.8,2.9-2.5,4.2c0.1,0.1,0.1,0.1,0.2,0.2c2.1-1.6,4.2-3.3,6.3-4.9
			c0.1,0.1,0.2,0.2,0.4,0.4c-0.6,1.7-1.3,3.4-3.2,4.1c-3.6,1.4-5.9,4.3-8.4,7c-0.4,0.4-0.3,1.3-0.4,2C153,32.8,153.1,32.9,153.3,33z
			"/>
		<path id="XMLID_136_" d="M154.2,19.8c-3.3,4.4-6.3,8.6-9.5,12.8c0.5,0.2,0.9,0.3,1.6,0.5c-2.3,1-4.2,1.9-6.1,2.7
			c-0.1-0.1-0.2-0.3-0.4-0.4c2.9-4.3,5.7-8.7,8.7-13.2c-0.4-0.2-0.8-0.4-1.2-0.5c0-0.1-0.1-0.3-0.1-0.4
			C149.4,20.8,151.7,20.3,154.2,19.8z"/>
		<path id="XMLID_135_" d="M163.7,34.9c2.8-4.1,5.7-8.3,8.6-12.5c-0.4-0.3-0.8-0.5-1.3-0.9c2.1-0.7,4.1-1.3,6.1-1.9
			c0.1,0.1,0.2,0.2,0.3,0.3c-2.6,3.9-5.3,7.8-8,11.8c0.5,0.3,0.8,0.5,1.2,0.7c-2.3,1-4.4,1.9-6.5,2.8
			C163.9,35.2,163.8,35.1,163.7,34.9z"/>
		<path id="XMLID_134_" d="M156.4,16.2c-1.7,1.4-2.2,4.3-5.2,2.9C151.9,16.4,153.2,15.7,156.4,16.2z"/>
		<path id="XMLID_133_" d="M175,19.5c0.6-2.9,1.5-3.6,5.2-3.6c-1.8,1.5-3.3,2.8-4.8,4C175.2,19.9,175.1,19.7,175,19.5z"/>
	</g>
</g>
</svg>
