<?xml version="1.0" encoding="utf-8"?>
<!-- Generator: Adobe Illustrator 19.0.0, SVG Export Plug-In . SVG Version: 6.00 Build 0)  -->
<svg version="1.1" id="Layer_1" xmlns="http://www.w3.org/2000/svg" xmlns:xlink="http://www.w3.org/1999/xlink" x="0px" y="0px"
	 viewBox="0 0 140 106.6" style="enable-background:new 0 0 140 106.6;" xml:space="preserve">
<style type="text/css">
	.st0{fill:none;stroke:#FFFFFF;stroke-width:2;stroke-miterlimit:10;}
</style>
<g>
	<polyline class="st0" points="106.2,36.8 106.2,1 35,1 35,72.1 70.3,72.1 	"/>
	<polyline class="st0" points="105.6,105.6 139,105.6 139,36.8 70.3,36.8 70.3,72.5 	"/>
	<rect x="1" y="72.1" class="st0" width="104.6" height="33.5"/>
	<rect x="117.6" y="89.9" class="st0" width="8.6" height="15.7"/>
	<polyline class="st0" points="1.5,89.9 105.6,89.9 105.6,97.8 1.5,97.8 	"/>
	<g id="XMLID_40_">
		<line id="XMLID_2_" class="st0" x1="8.9" y1="89.9" x2="8.9" y2="97.9"/>
		<line id="XMLID_13_" class="st0" x1="16.9" y1="89.9" x2="16.9" y2="97.9"/>
		<line id="XMLID_12_" class="st0" x1="25" y1="89.9" x2="25" y2="97.9"/>
		<line id="XMLID_11_" class="st0" x1="33" y1="89.9" x2="33" y2="97.9"/>
		<line id="XMLID_10_" class="st0" x1="41" y1="89.9" x2="41" y2="97.9"/>
		<line id="XMLID_9_" class="st0" x1="49.1" y1="89.9" x2="49.1" y2="97.9"/>
		<line id="XMLID_8_" class="st0" x1="57.1" y1="89.9" x2="57.1" y2="97.9"/>
		<line id="XMLID_7_" class="st0" x1="65.1" y1="89.9" x2="65.1" y2="97.9"/>
		<line id="XMLID_6_" class="st0" x1="73.2" y1="89.9" x2="73.2" y2="97.9"/>
		<line id="XMLID_5_" class="st0" x1="81.2" y1="89.9" x2="81.2" y2="97.9"/>
		<line id="XMLID_4_" class="st0" x1="89.2" y1="89.9" x2="89.2" y2="97.9"/>
		<line id="XMLID_3_" class="st0" x1="97.3" y1="89.9" x2="97.3" y2="97.9"/>
		<line id="XMLID_1_" class="st0" x1="105.3" y1="89.9" x2="105.3" y2="97.9"/>
	</g>
	<rect x="70.3" y="47.1" class="st0" width="68.7" height="13.2"/>
	<line class="st0" x1="93.2" y1="47.1" x2="93.2" y2="60.4"/>
	<line class="st0" x1="116.1" y1="47.1" x2="116.1" y2="60.4"/>
	<g>
		<rect x="35" y="12.2" class="st0" width="71.1" height="13.2"/>
		<line class="st0" x1="58.7" y1="12.2" x2="58.7" y2="25.5"/>
		<line class="st0" x1="82.4" y1="12.2" x2="82.4" y2="25.5"/>
	</g>
	<line class="st0" x1="70.3" y1="47.1" x2="70.3" y2="60.4"/>
	<line class="st0" x1="139" y1="47.1" x2="139" y2="60.4"/>
</g>
</svg>
