<?xml version="1.0" encoding="utf-8"?>
<!-- Generator: Adobe Illustrator 19.0.0, SVG Export Plug-In . SVG Version: 6.00 Build 0)  -->
<svg version="1.1" id="Layer_1" xmlns="http://www.w3.org/2000/svg" xmlns:xlink="http://www.w3.org/1999/xlink" x="0px" y="0px"
	 viewBox="0 0 29.2 29.2" style="enable-background:new 0 0 29.2 29.2;" xml:space="preserve">
<style type="text/css">
	.st0{fill:#FFFFFF;}
</style>
<path class="st0" d="M27,0H2.2C1,0,0,0.9,0,2.1v25c0,1.2,1,2.1,2.2,2.1H27c1.2,0,2.2-0.9,2.2-2.1v-25C29.2,0.9,28.2,0,27,0z
	 M4.3,10.9h4.3v13.9H4.3V10.9z M6.5,4C7.9,4,9,5.1,9,6.5C9,7.9,7.9,9,6.5,9C5.1,9,4,7.9,4,6.5C4,5.1,5.1,4,6.5,4 M11.4,10.9h4.2v1.9
	h0.1c0.6-1.1,2-2.2,4.1-2.2c4.4,0,5.2,2.9,5.2,6.6v7.6h-4.3v-6.8c0-1.6,0-3.7-2.2-3.7c-2.3,0-2.6,1.8-2.6,3.6v6.9h-4.3V10.9z"/>
</svg>
