<?xml version="1.0" encoding="utf-8"?>
<!-- Generator: Adobe Illustrator 19.0.0, SVG Export Plug-In . SVG Version: 6.00 Build 0)  -->
<svg version="1.1" id="Layer_1" xmlns="http://www.w3.org/2000/svg" xmlns:xlink="http://www.w3.org/1999/xlink" x="0px" y="0px"
	 viewBox="0 0 159.5 119" style="enable-background:new 0 0 159.5 119;" xml:space="preserve">
<style type="text/css">
	.st0{fill:none;stroke:#AFAFB0;stroke-width:3;stroke-miterlimit:10;}
</style>
<g>
	<g>
		<g>
			<g>
				<polyline class="st0" points="123.2,1.1 137.9,15.8 123.2,30.5 				"/>
				<line class="st0" x1="82.5" y1="15.8" x2="137.9" y2="15.8"/>
			</g>
			<g>
				<polyline class="st0" points="123.2,88.5 137.9,103.2 123.2,118 				"/>
				<line class="st0" x1="82.5" y1="103.2" x2="137.9" y2="103.2"/>
			</g>
		</g>
		<g>
			<polyline class="st0" points="142.7,44.8 157.4,59.5 142.7,74.2 			"/>
			<line class="st0" x1="102.1" y1="59.5" x2="157.4" y2="59.5"/>
		</g>
	</g>
	<g>
		<g>
			<g>
				<polyline class="st0" points="40.6,1.1 55.3,15.8 40.6,30.5 				"/>
				<line class="st0" x1="0" y1="15.8" x2="55.3" y2="15.8"/>
			</g>
			<g>
				<polyline class="st0" points="40.6,88.5 55.3,103.2 40.6,118 				"/>
				<line class="st0" x1="0" y1="103.2" x2="55.3" y2="103.2"/>
			</g>
		</g>
		<g>
			<polyline class="st0" points="60.1,44.8 74.9,59.5 60.1,74.2 			"/>
			<line class="st0" x1="19.5" y1="59.5" x2="74.9" y2="59.5"/>
		</g>
	</g>
</g>
</svg>
